<svg width="319" height="319" viewBox="0 0 319 319" fill="none" xmlns="http://www.w3.org/2000/svg">
<path d="M317.522 179.635L310.508 158.124C309.092 153.786 308.846 149.151 309.787 144.685L314.46 122.547C316.378 113.459 313.306 104.037 306.399 97.8301L289.575 82.71C286.181 79.6614 283.649 75.7699 282.236 71.4322L275.221 49.9212C272.342 41.0913 264.972 34.4672 255.89 32.5483L233.765 27.8722C229.302 26.9285 225.166 24.8258 221.772 21.7771L204.948 6.65711C198.041 0.449942 188.349 -1.59894 179.525 1.28384L158.027 8.30249C153.692 9.71922 149.059 9.96581 144.597 9.02431L122.472 4.3482C113.389 2.42933 103.973 5.50265 97.7701 12.4137L82.6593 29.2486C79.6125 32.6447 75.7234 35.1778 71.3884 36.5923L49.8906 43.6109C41.0661 46.4915 34.4461 53.8666 32.5284 62.9543L27.8551 85.0929C26.912 89.5583 24.8106 93.6964 21.7638 97.0926L6.65303 113.927C0.449667 120.839 -1.59796 130.536 1.28305 139.366L8.2974 160.877C9.71326 165.214 9.9597 169.85 9.01877 174.316L4.34553 196.454C2.42784 205.542 5.49928 214.964 12.4061 221.171L29.2307 236.291C32.6247 239.34 35.1562 243.231 36.5699 247.569L43.5842 269.08C46.463 277.91 53.8335 284.534 62.9157 286.453L85.0408 291.129C89.5034 292.072 93.639 294.175 97.033 297.224L113.858 312.344C120.764 318.551 130.454 320.6 139.28 317.717L160.778 310.698C165.113 309.282 169.746 309.035 174.209 309.977L196.334 314.653C205.416 316.572 214.832 313.498 221.035 306.587L236.146 289.752C239.193 286.356 243.082 283.823 247.417 282.409L268.915 275.39C277.739 272.509 284.359 265.134 286.277 256.047L290.95 233.908C291.893 229.443 293.995 225.305 297.042 221.908L312.152 205.074C318.356 198.162 320.403 188.465 317.522 179.635Z" fill="#161512"/>
<path d="M159.403 190.458C176.492 190.458 190.346 176.596 190.346 159.496C190.346 142.396 176.492 128.534 159.403 128.534C142.313 128.534 128.46 142.396 128.46 159.496C128.46 176.596 142.313 190.458 159.403 190.458Z" fill="#FCEDC7"/>
<path d="M159.403 166.853C163.464 166.853 166.755 163.559 166.755 159.496C166.755 155.433 163.464 152.139 159.403 152.139C155.342 152.139 152.05 155.433 152.05 159.496C152.05 163.559 155.342 166.853 159.403 166.853Z" fill="#0B0B0B"/>
<path d="M97.3714 96.6372C81.2122 107.24 69.0228 123.013 64.5624 141.97C63.6775 145.593 63.0973 149.354 62.8172 153.076C62.7791 153.739 62.6492 155.243 62.6537 155.887C62.647 156.355 62.6178 157.297 62.6066 157.765C62.573 159 62.6425 160.287 62.6447 161.527C62.6806 162.141 62.7836 163.717 62.8195 164.347C62.9135 165.414 63.0547 166.559 63.151 167.631C63.2922 168.496 63.4915 170.04 63.6461 170.899C63.7671 171.536 64.0606 173.044 64.1771 173.69C65.4092 179.278 67.2127 184.775 69.6815 189.942C70.2908 191.3 71.169 192.95 71.8657 194.266C72.4661 195.403 73.1808 196.528 73.8103 197.653C74.3009 198.422 75.1769 199.785 75.6563 200.559L75.9386 200.962L76.5009 201.776C76.875 202.32 77.2469 202.87 77.6166 203.426C76.8862 202.838 76.0708 202.092 75.3494 201.473C74.5048 200.729 73.2861 199.465 72.4841 198.671C71.7179 197.788 70.8979 196.925 70.1497 196.035C69.4373 195.116 68.6599 194.179 67.9744 193.248L66.8161 191.587C50.1237 167.189 53.3184 133.022 73.7946 111.78C80.3273 105.01 88.4058 99.5514 97.3714 96.6417V96.6372Z" fill="#FCEDC7"/>
<path d="M80.4841 84.604C71.9643 90.0019 64.1659 96.5924 57.7878 104.42C56.9499 105.38 55.7334 106.969 54.9605 108.025C54.5057 108.637 54.0353 109.235 53.6186 109.874C52.2968 111.737 51.1005 113.672 49.9042 115.613C49.2343 116.83 48.318 118.384 47.7176 119.599C47.2629 120.524 46.7834 121.466 46.3175 122.387C45.9769 123.147 45.1749 124.963 44.821 125.754C44.3326 127.039 43.6224 128.709 43.19 129.98C42.4238 132.112 41.7831 134.279 41.1536 136.454C40.4165 139.345 39.7333 142.358 39.2986 145.304C39.0746 146.586 38.8394 148.471 38.7184 149.789C38.6512 150.457 38.5437 151.381 38.5213 152.042C38.4227 153.347 38.295 155.268 38.3017 156.564C38.2457 158.054 38.2905 159.606 38.3241 161.094C38.3241 162.374 38.4966 164.338 38.575 165.624C38.696 166.911 38.873 168.288 38.9962 169.577C39.2449 171.085 39.507 173.136 39.843 174.625C41.1805 181.744 43.5283 188.725 46.5841 195.286C46.9963 196.122 47.7288 197.593 48.1209 198.404C48.6496 199.415 49.259 200.455 49.7922 201.466C50.4329 202.652 51.5105 204.322 52.187 205.481C52.7897 206.394 53.865 207.996 54.4564 208.913C55.2383 209.983 56.1008 211.193 56.8648 212.282C56.0224 211.532 55.0501 210.673 54.2122 209.897C53.9815 209.7 53.5626 209.288 53.3542 209.07C52.3797 208.048 50.9549 206.663 50.0789 205.593C49.716 205.19 48.439 203.679 48.1299 203.314C47.2987 202.206 46.3914 201.079 45.5871 199.96C44.7896 198.754 43.6358 197.16 42.9301 195.934L41.689 193.856C40.9901 192.686 40.0671 190.807 39.4129 189.574C36.4333 183.381 34.2289 176.701 33.0101 169.924C32.8287 168.792 32.5778 167.425 32.4344 166.295C32.3381 165.461 32.1252 163.439 32.0356 162.639C31.9034 160.626 31.7556 158.532 31.7825 156.512C31.7847 155.784 31.7533 154.773 31.7937 154.057C31.8564 152.639 31.9124 150.549 32.0849 149.155C32.2395 147.232 32.5598 144.954 32.8533 143.062C33.3014 140.291 34.0228 137.397 34.7352 134.674C36.1129 129.98 37.8626 125.335 40.0984 120.977L40.6428 119.879L40.7795 119.605C41.7294 117.917 42.6434 116.198 43.7142 114.584C52.261 101.009 65.3039 89.9549 80.4841 84.6062V84.604Z" fill="#FCEDC7"/>
<path d="M117.189 104.286C106.841 111.333 98.0905 120.829 92.7497 132.203C88.4707 141.199 86.3649 151.219 86.627 161.17C86.6247 161.585 86.6561 162.419 86.692 162.833C86.7457 164.286 86.9249 165.965 87.0638 167.404C87.1871 168.171 87.3528 169.538 87.4873 170.298C87.5926 170.861 87.8435 172.201 87.942 172.771C89.0062 177.732 90.5654 182.614 92.7071 187.218C93.7825 189.633 94.9945 191.832 96.2983 194.116C97.0062 195.237 97.8822 196.732 98.6394 197.821C98.9665 198.31 99.2891 198.808 99.6095 199.308C98.9486 198.794 98.2115 198.14 97.5596 197.597C96.7777 196.927 95.7091 195.846 94.9698 195.131C93.1417 193.192 91.354 191.067 89.8418 188.864C74.7109 167.182 77.5695 136.451 96.0071 117.581C101.877 111.576 109.142 106.751 117.189 104.286Z" fill="#FCEDC7"/>
<path d="M134.999 115.339C129.085 119.722 123.832 124.911 119.806 131.071C109.854 145.934 108.445 165.353 115.643 181.702C116.347 183.372 117.187 185.082 118.045 186.676C118.412 187.409 119.022 188.409 119.423 189.121C119.886 189.928 120.431 190.749 120.897 191.56C120.245 191.083 119.548 190.52 118.912 190.014C118.394 189.561 117.541 188.776 117.043 188.312C115.854 187.113 114.7 185.846 113.654 184.519C100.082 167.211 102.096 141.127 117.644 125.691C122.46 120.905 128.417 117.097 134.999 115.339Z" fill="#FCEDC7"/>
</svg>
