<svg width="305" height="306" viewBox="0 0 305 306" fill="none" xmlns="http://www.w3.org/2000/svg">
<path d="M1.22755 134.146L7.93813 154.705C9.29268 158.85 9.52843 163.281 8.62825 167.549L4.1574 188.707C2.32274 197.393 5.26119 206.397 11.8689 212.33L27.9649 226.78C31.212 229.694 33.6339 233.413 34.9863 237.559L41.6969 258.117C44.451 266.556 51.5024 272.887 60.1913 274.721L81.3582 279.19C85.6277 280.092 89.5841 282.102 92.8312 285.016L108.927 299.466C115.535 305.399 124.807 307.357 133.249 304.602L153.816 297.894C157.963 296.54 162.396 296.304 166.665 297.204L187.832 301.673C196.521 303.507 205.529 300.57 211.464 293.964L225.92 277.875C228.835 274.629 232.556 272.208 236.703 270.856L257.27 264.148C265.712 261.395 272.046 254.347 273.88 245.661L278.351 224.503C279.253 220.235 281.264 216.28 284.179 213.034L298.635 196.945C304.57 190.34 306.529 181.072 303.772 172.633L297.062 152.074C295.707 147.928 295.472 143.498 296.372 139.23L300.843 118.071C302.677 109.386 299.739 100.381 293.131 94.4491L277.035 79.9985C273.788 77.0848 271.366 73.3655 270.014 69.2199L263.303 48.6612C260.549 40.2222 253.498 33.8914 244.809 32.0574L223.642 27.5884C219.372 26.6864 215.416 24.6768 212.169 21.7631L196.073 7.31245C189.465 1.38008 180.195 -0.578084 171.751 2.17707L151.184 8.88499C147.037 10.239 142.604 10.4747 138.335 9.57484L117.168 5.10576C108.479 3.27184 99.471 6.20912 93.5363 12.8142L79.0799 28.9038C76.1651 32.1496 72.4443 34.5705 68.2971 35.9224L47.7302 42.6303C39.2878 45.3834 32.9545 52.4319 31.1198 61.1173L26.6489 82.2759C25.7466 86.5436 23.7362 90.4985 20.8214 93.7443L6.36497 109.834C0.430251 116.439 -1.5287 125.707 1.22755 134.146Z" fill="#161512"/>
</svg>
