<svg width="67" height="81" viewBox="0 0 67 81" fill="none" xmlns="http://www.w3.org/2000/svg">
<path d="M66.4258 21.9873C66.3752 21.7406 66.2867 21.513 66.1602 21.3169C66.1159 21.26 66.0717 21.1968 66.0211 21.1462C66.0084 21.1272 65.9958 21.1146 65.9768 21.1019C59.2293 12.9252 49.5348 11.7236 40.1502 10.5664C30.6834 9.39647 21.7414 8.29611 15.5757 0.530418C15.3354 0.226873 14.9875 0.081424 14.6397 0.081424C14.5955 0.081424 14.5512 0.081424 14.5069 0.0940717L14.4753 0.0498047L14.4563 0.0940717C14.0706 0.150986 13.7101 0.397617 13.5331 0.808668L0.24663 31.941C0.208687 32.0169 0.177068 32.0928 0.145449 32.175C0.0505909 32.4343 0 32.7125 0 33.0098C0 33.5536 0.177068 34.0532 0.467965 34.4389C0.518556 34.5022 0.569147 34.5654 0.626062 34.6223C1.68847 35.8049 2.88368 36.9305 4.17375 37.9487C5.90648 39.3083 7.80364 40.4782 9.80198 41.3256C14.937 43.52 20.6727 44.2283 26.2187 44.9113C35.6413 46.0748 44.5453 47.1689 50.7047 54.8397L40.6877 78.3075C40.4158 78.9399 40.713 79.6798 41.3517 79.9454H41.358C41.9967 80.2237 42.743 79.9265 43.0086 79.2814L66.3562 22.9928C66.4195 22.7967 66.4574 22.5817 66.4574 22.3604C66.4574 22.2339 66.4448 22.1074 66.4258 21.9873ZM51.3877 51.9687C44.6781 44.7785 35.4515 43.6338 26.5096 42.5335C17.8775 41.4647 9.68815 40.4593 3.64254 34.4073C3.21252 33.9773 2.78882 33.522 2.38409 33.0414L3.18722 31.1505L14.9875 3.50895C21.6908 10.6992 30.9237 11.8438 39.8593 12.9442C49.0289 14.0824 57.6989 15.1449 63.8393 22.2592C63.833 22.2908 63.833 22.3288 63.833 22.3604C63.833 22.4869 63.8457 22.607 63.8646 22.7272L51.3877 51.9687Z" fill="#1D1D1B"/>
<path d="M63.8634 22.727L51.3864 51.9685C44.6768 44.7783 35.4503 43.6337 26.5083 42.5333C17.8763 41.4646 9.68687 40.4591 3.64126 34.4072C3.21124 33.9771 2.78754 33.5218 2.38281 33.0412L3.18594 31.1504L14.9863 3.50879C21.6896 10.699 30.9224 11.8436 39.858 12.944C49.0276 14.0823 57.6976 15.1447 63.8381 22.259C63.8317 22.2906 63.8317 22.3286 63.8317 22.3602C63.8317 22.4867 63.8444 22.6068 63.8634 22.727Z" fill="#F7E8C3"/>
<path d="M51.2626 27.002C51.1045 26.5087 50.9401 26.0155 50.7757 25.5349C50.6745 25.2376 50.6555 24.9278 50.7251 24.6179C50.8263 24.1183 50.9338 23.6124 51.0413 23.1128C51.1741 22.4931 50.9527 21.8607 50.4595 21.4813C50.0548 21.1777 49.65 20.8805 49.239 20.5896C48.986 20.4125 48.8026 20.1849 48.6888 19.9129C48.5117 19.464 48.3283 19.0213 48.145 18.5786C47.9173 18.0411 47.3671 17.6933 46.6905 17.6806C46.1403 17.668 45.5838 17.668 45.0336 17.668C44.6921 17.668 44.3823 17.5984 44.1167 17.453C43.6866 17.219 43.2503 16.985 42.8139 16.7573C42.2764 16.4791 41.5302 16.5044 40.8725 16.8269C40.335 17.0862 39.7975 17.3455 39.2599 17.6111C38.9311 17.7692 38.5833 17.864 38.2418 17.8767C37.6726 17.902 37.1098 17.9336 36.5407 17.9589C35.845 17.9905 35.1368 18.332 34.6878 18.8632C34.4285 19.1667 34.1692 19.4703 33.9036 19.7801C33.5938 19.875 33.2839 19.9952 32.9867 20.1533C32.5503 19.464 31.7535 19.015 30.6658 18.8442C30.5393 18.8252 30.4065 18.8063 30.2737 18.7936C29.7805 18.7494 29.2935 18.7747 28.8192 18.8695C28.6295 18.7177 28.3892 18.6102 28.1236 18.5533C27.0106 18.3383 25.9039 18.0853 24.8226 17.7945C23.9182 17.5478 22.9128 18.0031 22.5523 18.8569C21.4646 21.4054 20.3769 23.9539 19.2892 26.5024C19.1121 26.4771 18.9287 26.4581 18.758 26.4328C18.1952 26.357 17.626 26.5403 17.2213 26.9324C16.8292 27.3182 16.4687 27.6597 16.1715 27.9506C15.8617 28.2351 15.5897 28.4944 15.3557 28.7221C15.1154 28.9497 14.9067 29.1458 14.7423 29.3165C14.5463 29.5062 14.3882 29.677 14.2617 29.8288C14.0973 30.0185 13.9708 30.1892 13.8633 30.36C13.7242 30.5813 13.623 30.8216 13.5534 31.0619C13.3953 31.6184 13.4586 32.2065 13.7432 32.7061C13.9708 33.1108 14.3376 33.4207 14.8056 33.5851C14.9068 33.6231 15.0143 33.6547 15.1281 33.68C15.438 33.7495 15.7605 33.7559 16.0893 33.699C16.2537 33.8065 16.4308 33.8887 16.6268 33.9519C16.728 33.9835 16.8355 34.0088 16.943 34.0215C17.1707 34.0594 17.4047 34.0657 17.6323 34.0468C17.6892 34.0594 17.7525 34.0721 17.8094 34.0784C18.1129 34.11 18.4228 34.1353 18.7327 34.1606C18.935 34.1796 19.1437 34.1606 19.3461 34.11C19.5548 34.2428 19.7951 34.3377 20.0607 34.3946C20.1745 34.4199 20.301 34.4388 20.4212 34.4515C20.6488 34.4705 20.8765 34.4705 21.1041 34.4452C21.2938 34.4199 21.4899 34.3819 21.6859 34.325C21.9009 34.4388 22.1476 34.5211 22.4258 34.5716C22.5649 34.5969 22.7104 34.6096 22.8622 34.6222C23.3618 34.6475 23.8613 34.5906 24.3483 34.4578C23.9688 35.3432 23.5894 36.2348 23.21 37.1265C22.8432 37.9739 23.3175 38.7833 24.2661 38.9161C25.3917 39.0679 26.5237 39.2134 27.662 39.3525C28.0098 39.3968 28.3766 39.3462 28.7181 39.2197C28.9204 39.4094 29.2113 39.5422 29.5591 39.5865C30.6911 39.7319 31.8231 39.8774 32.9487 40.0418C33.2965 40.0924 33.657 40.0481 33.9985 39.928C34.2008 40.1303 34.4791 40.2758 34.8269 40.3327C35.9273 40.5161 37.0213 40.7248 38.0963 40.9651C39.0133 41.1738 40.0378 40.6805 40.4045 39.8331C40.8852 38.7011 41.3721 37.5628 41.8527 36.4309C42.1689 36.4562 42.4788 36.4815 42.7886 36.5131C43.4463 36.5763 44.1103 36.3234 44.5467 35.8301C44.9008 35.4317 45.2549 35.0333 45.6091 34.6412C45.8178 34.4009 46.096 34.2175 46.3996 34.11C46.8992 33.9266 47.3987 33.7559 47.892 33.5915C48.5054 33.3891 48.9607 32.8895 49.0935 32.2634C49.201 31.7512 49.3149 31.2453 49.4224 30.7394C49.4856 30.4295 49.6311 30.1449 49.8397 29.911C50.1876 29.5252 50.5354 29.1395 50.8832 28.76C51.3132 28.2857 51.4587 27.6154 51.2626 27.002ZM24.519 29.2976C24.519 29.2976 24.5317 29.2849 24.538 29.2786C24.538 29.2849 24.538 29.2849 24.5506 29.2912C24.538 29.2912 24.5317 29.2976 24.519 29.2976Z" fill="#161613"/>
<path d="M40.6048 25.0225C39.4096 24.8328 38.0499 25.5853 37.5883 26.6667C37.1267 27.7481 37.7338 28.7599 38.9353 28.9496C40.1305 29.133 41.4648 28.4437 41.9265 27.3623C42.3944 26.2746 41.8063 25.2122 40.6048 25.0225ZM40.2823 27.0714C40.1748 27.3244 39.8586 27.4951 39.574 27.4508C39.2894 27.4066 39.144 27.1599 39.2515 26.907C39.3653 26.6477 39.6815 26.477 39.9661 26.5212C40.257 26.5655 40.3961 26.8121 40.2823 27.0714Z" fill="#F7E8C3"/>
<path d="M47.0044 25.7753C47.485 23.8402 46.41 21.9114 44.399 21.4434C44.3547 21.4308 44.3041 21.4244 44.2599 21.4118C44.1777 21.3992 44.0954 21.3865 44.0132 21.3675C43.931 21.3549 43.8425 21.3486 43.7603 21.3422C43.6781 21.3422 43.5516 21.3296 43.4694 21.3296C43.3998 21.3296 43.3176 21.3296 43.248 21.3296C43.2923 21.3422 43.3366 21.3486 43.3872 21.3612C43.4125 21.3612 43.4314 21.3739 43.4567 21.3739C43.4694 21.3739 43.482 21.3739 43.4884 21.3802C43.5516 21.3992 43.6591 21.4244 43.7223 21.4371C43.8045 21.4624 43.8931 21.4877 43.9816 21.5193C44.0765 21.5509 44.1966 21.5952 44.2915 21.6331C44.6519 21.7786 44.9745 21.9746 45.2717 22.196C45.3033 22.2213 45.3792 22.2845 45.4108 22.3098C45.4551 22.3477 45.5246 22.4173 45.5689 22.4552C45.6132 22.5058 45.6701 22.5564 45.7144 22.607C45.7396 22.6386 45.8092 22.7145 45.8345 22.7398C45.8788 22.803 45.9357 22.8663 45.98 22.9295C45.9989 22.9548 46.0305 23.0054 46.0495 23.0244C46.0748 23.056 46.1254 23.1382 46.1444 23.1762C46.2709 23.3785 46.372 23.5935 46.4542 23.8149C46.8906 24.9721 46.7198 26.2938 46.1128 27.4954C46.5617 26.9894 46.859 26.3824 47.0107 25.7626L47.0044 25.7753Z" fill="#F7E8C3"/>
<path d="M48.7579 24.4535C48.7642 24.3271 48.7579 24.1943 48.7579 24.0678C48.7579 24.0615 48.7579 24.0551 48.7579 24.0488C48.7579 24.0235 48.7579 23.9919 48.7516 23.9666C48.7326 23.6441 48.6694 23.3279 48.5808 23.018C48.5239 22.8473 48.4607 22.6639 48.3848 22.4995C48.3342 22.3856 48.2646 22.2528 48.2077 22.1453C48.1634 22.0631 48.0939 21.9556 48.0433 21.8734C48.018 21.8355 47.9801 21.7849 47.9548 21.7469C47.8789 21.6394 47.7903 21.5382 47.7081 21.4371C47.6702 21.3991 47.5817 21.3043 47.5437 21.2663C47.4931 21.2157 47.4236 21.1525 47.373 21.1019C47.0378 20.8047 46.6457 20.558 46.222 20.3746C46.1335 20.343 46.0007 20.2861 45.9122 20.2608C45.8616 20.2418 45.8046 20.2292 45.7541 20.2102C45.6592 20.1786 45.5264 20.1533 45.4315 20.128C45.3367 20.109 45.2355 20.0901 45.1406 20.0711C45.109 20.0711 44.9699 20.0458 44.9256 20.0458C44.8308 20.0332 44.6853 20.0268 44.5841 20.0205C44.5652 20.0205 44.5209 20.0205 44.4956 20.0205C44.4134 20.0205 44.3185 20.0205 44.2363 20.0205C44.3249 20.0395 44.4324 20.0585 44.5209 20.0774C44.5905 20.0964 44.7233 20.128 44.7992 20.147C44.8877 20.1723 45.0205 20.2102 45.109 20.2418C45.1849 20.2671 45.2608 20.2924 45.3367 20.3177C45.3936 20.343 45.4948 20.381 45.558 20.4063C46.007 20.6023 46.4244 20.8489 46.7785 21.1525C46.8544 21.2157 46.9493 21.3106 47.0252 21.3738C47.0821 21.4371 47.1453 21.5003 47.2022 21.5572C47.2528 21.6204 47.3413 21.7153 47.3919 21.7785C47.4489 21.8544 47.5121 21.9303 47.5627 22.0125C47.6133 22.0821 47.6765 22.1833 47.7208 22.2592C47.7461 22.2971 47.7714 22.3477 47.7903 22.3856C47.8346 22.4615 47.8915 22.569 47.9231 22.6449C48.0053 22.8157 48.0749 23.0054 48.1382 23.1824C48.1824 23.3216 48.2204 23.4607 48.252 23.6061C48.271 23.6883 48.2899 23.8085 48.3089 23.897C48.3152 23.9539 48.3342 24.0804 48.3405 24.1373C48.3405 24.2069 48.3532 24.2765 48.3595 24.3397C48.3658 24.4282 48.3658 24.5484 48.3721 24.6369C48.3721 24.7887 48.3721 24.9405 48.3532 25.0922C48.3532 25.1428 48.3468 25.1934 48.3405 25.244C48.3342 25.3325 48.3152 25.4653 48.2962 25.5476C48.1887 26.2179 47.9484 26.8756 47.6259 27.4953C48.3595 26.6289 48.7579 25.5223 48.7895 24.4535H48.7579Z" fill="#F7E8C3"/>
<path d="M43.041 22.5626C42.8576 22.5246 42.6616 22.4993 42.4656 22.4867C42.3897 22.4867 42.2822 22.4804 42.1999 22.4867C42.1367 22.4867 42.0671 22.4867 42.0039 22.493C42.0418 22.4993 42.0861 22.512 42.1241 22.5183C42.2126 22.5373 42.3327 22.5689 42.4213 22.5942C42.592 22.6448 42.7564 22.6954 42.9209 22.7649C43.2371 22.8914 43.528 23.0622 43.7872 23.2582C43.8189 23.2835 43.8821 23.3341 43.9137 23.3594C43.9517 23.391 44.0149 23.4479 44.0528 23.4859C44.1161 23.5491 44.192 23.625 44.2552 23.6946C44.2742 23.7135 44.3058 23.7515 44.3248 23.7768C44.7295 24.2574 44.9761 24.8455 45.052 25.4842C45.1532 26.281 44.9635 27.1284 44.584 27.9062C44.9951 27.4509 45.2607 26.9071 45.4061 26.3632C45.8425 24.6431 44.8623 22.9483 43.041 22.5689V22.5626Z" fill="#F7E8C3"/>
<path d="M41.6993 23.8021C41.5792 23.7832 41.459 23.7768 41.3326 23.7705C41.282 23.7705 41.1934 23.7705 41.1428 23.7705C41.0796 23.7705 41.0164 23.7768 40.9531 23.7832C41.0164 23.8021 41.0796 23.8148 41.1428 23.8337C41.1998 23.8527 41.2756 23.8717 41.3262 23.8907C41.4464 23.9286 41.5665 23.9729 41.674 24.0235C42.7807 24.4851 43.4447 25.4969 43.3878 26.6542C43.3752 27.1285 43.2424 27.6091 43.04 28.0707C43.3878 27.7103 43.6155 27.2676 43.7356 26.8313C44.1214 25.4084 43.2424 24.0235 41.693 23.8021H41.6993Z" fill="#F7E8C3"/>
<path d="M25.3837 23.6696C25.605 23.2965 25.9528 22.7779 26.4461 22.6704C26.9141 22.5693 27.2682 22.7779 27.3125 23.1637C27.3251 23.3091 27.2745 23.7139 27.2113 23.853C26.6927 25.0735 26.1679 26.294 25.6493 27.5208C26.7623 27.7169 27.8816 27.8876 29.0136 28.0394C29.5322 26.9201 29.9116 25.7249 30.5566 24.6308C30.8538 24.1249 31.4356 23.2396 32.1818 23.4925C32.7636 23.6886 32.4664 24.5613 32.2957 25.0356C31.9036 26.1106 31.3155 27.211 30.9044 28.286C32.0237 28.4315 33.1494 28.5643 34.2687 28.7034C34.9833 27.0339 35.6979 25.3644 36.4062 23.6949C36.95 22.0633 37.0133 20.6215 34.8062 20.5077C32.5233 20.3875 30.8981 23.1258 30.1266 24.6561C30.0886 24.6561 30.0507 24.6435 30.0128 24.6372C30.4871 23.6064 31.0815 22.5945 31.1764 21.5321C31.2712 20.4255 30.6388 19.8563 29.393 19.7298C27.1038 19.4832 25.7947 22.1898 24.8778 23.6443C24.8209 23.7328 24.8019 23.7455 24.7007 23.7075C25.5102 22.291 26.3196 20.8745 27.1291 19.4579C26.0161 19.2303 24.9221 18.9647 23.847 18.6548C22.753 21.2223 21.6526 23.7961 20.5586 26.3636C21.621 26.6671 22.7087 26.9264 23.8091 27.1541C24.3466 26.0031 24.7323 24.7636 25.3963 23.6506L25.3837 23.6696Z" fill="#F7E8C3"/>
<path d="M39.0325 30.4358C36.7686 30.2398 35.156 33.0159 34.3718 34.5337C34.3339 34.5337 34.2959 34.521 34.258 34.521C34.9347 33.1361 36.3891 30.518 34.5046 29.8414C32.8984 29.2722 31.602 30.0943 30.5585 31.397C29.9451 32.1622 29.4329 33.0286 29.0029 33.8507C28.9523 33.8444 28.9017 33.838 28.8511 33.8317C29.6669 32.3962 30.4827 30.967 31.2984 29.5315C30.1475 29.386 29.0029 29.2406 27.8646 29.0762C26.7706 31.6437 25.6702 34.2175 24.5762 36.785C25.7018 36.9494 26.8338 37.0948 27.9721 37.2339C28.3831 36.3549 28.693 35.4443 29.1104 34.5653C29.338 34.0847 29.8503 33.0602 30.4068 32.7693C30.8494 32.5353 31.368 32.6239 31.5008 32.978C31.564 33.1551 31.5134 33.6104 31.4312 33.8001L29.8692 37.4679C31.0012 37.6071 32.1395 37.7525 33.2652 37.9106C33.79 36.7913 34.1631 35.5961 34.8082 34.502C35.1054 33.9961 35.6935 33.1108 36.4271 33.3764C37.0089 33.5914 36.7053 34.4641 36.5346 34.9321C36.1425 36.0071 35.5544 37.1075 35.1433 38.1825C36.25 38.3596 37.344 38.5556 38.4317 38.7896C39.1463 37.1201 39.8609 35.4506 40.5692 33.7811C41.1257 32.1432 41.2016 30.6318 39.0452 30.4232L39.0325 30.4358Z" fill="#F7E8C3"/>
<path d="M18.9654 29.0004C19.035 29.1015 19.1299 29.1585 19.2563 29.1774C19.3828 29.1964 19.503 29.1774 19.6168 29.1015C19.7306 29.032 19.8002 28.9371 19.8381 28.817C19.8697 28.6968 19.8571 28.5893 19.7875 28.4945C19.718 28.3996 19.6231 28.3364 19.4966 28.3174C19.3702 28.2984 19.25 28.3174 19.1362 28.3933C19.0223 28.4628 18.9528 28.5577 18.9148 28.6778C18.8832 28.798 18.8959 28.9055 18.9654 29.0067V29.0004Z" fill="#F7E8C3"/>
<path d="M26.0559 30.9041C25.9484 31.0053 25.8093 31.1191 25.6512 31.2456C25.4931 31.3721 25.316 31.4986 25.12 31.625C24.8101 31.8274 24.5129 31.9918 24.2283 32.1183C23.9437 32.2448 23.6971 32.3017 23.4821 32.2891C23.3746 32.2827 23.2924 32.2638 23.2355 32.2258C23.1722 32.1879 23.128 32.1436 23.0963 32.0867C23.071 32.0361 23.0521 31.9665 23.0584 31.897C23.0584 31.8274 23.071 31.7515 23.09 31.682C23.1027 31.6377 23.1153 31.5998 23.128 31.5618C23.1469 31.5175 23.1659 31.4796 23.1849 31.4417C23.3113 31.4227 23.4884 31.3974 23.7161 31.3658C23.9437 31.3278 24.1714 31.2836 24.4054 31.2203C24.6394 31.1571 24.848 31.0749 25.0314 30.9737C25.2148 30.8788 25.3287 30.7587 25.3666 30.6196C25.4045 30.4741 25.3603 30.3729 25.2401 30.3034C25.1136 30.2338 24.9429 30.1959 24.7216 30.1832C24.5066 30.1706 24.2599 30.2022 23.9943 30.2717C23.7287 30.3413 23.4758 30.4362 23.2291 30.5626C22.9825 30.6954 22.7675 30.8472 22.5778 31.0243C22.4387 31.1571 22.3375 31.3025 22.2679 31.4543C22.192 31.5112 22.1161 31.5618 22.0403 31.6187C21.8948 31.7199 21.7557 31.8084 21.6166 31.8843C21.4774 31.9602 21.3573 32.0235 21.2434 32.0677C21.1296 32.112 21.0348 32.131 20.9589 32.1246C20.883 32.1183 20.8577 32.074 20.8767 31.9982C20.8767 31.9665 20.902 31.9286 20.9273 31.8907C20.9589 31.8527 20.9842 31.8084 21.0158 31.7705C21.0537 31.7326 21.079 31.6883 21.1106 31.644C21.1359 31.5998 21.1549 31.5618 21.1676 31.5175C21.1865 31.448 21.1865 31.3784 21.1676 31.3278C21.1423 31.2709 21.1106 31.2266 21.0664 31.1824C21.0221 31.1444 20.9715 31.1065 20.9146 31.0749C20.8514 31.0433 20.7945 31.0116 20.7312 30.98C20.7312 30.98 20.7312 30.9737 20.7312 30.9674C20.8197 30.9674 20.9462 30.9674 21.1043 30.961C21.2561 30.961 21.4142 30.9421 21.5786 30.9105C21.7367 30.8725 21.8758 30.8219 22.0086 30.746C22.1414 30.6765 22.2236 30.569 22.2616 30.4362C22.2806 30.3603 22.2806 30.297 22.2616 30.2401C22.2426 30.1832 22.211 30.1389 22.1667 30.101C22.1225 30.0631 22.0656 30.0314 22.0023 30.0125C21.9327 29.9872 21.8632 29.9745 21.7873 29.9682C21.5913 29.9492 21.4015 29.9745 21.1992 30.0441C21.0031 30.1136 20.8071 30.2022 20.6174 30.316C20.4213 30.4298 20.238 30.5563 20.0546 30.6954C19.8712 30.8346 19.7004 30.9674 19.5423 31.0875C19.5423 31.0812 19.5423 31.0749 19.5423 31.0685C20.0735 30.5753 20.5984 30.0694 21.1296 29.5508C21.6545 29.0323 22.1857 28.5074 22.7169 27.9699C22.3944 27.9572 22.0656 27.9446 21.743 27.9256C21.0854 28.5896 20.434 29.2473 19.789 29.8923C19.3463 30.335 18.8973 30.784 18.4483 31.2266C18.3345 31.3089 18.2206 31.3784 18.1131 31.4353C17.9803 31.5112 17.8539 31.5681 17.7337 31.6124C17.6136 31.6567 17.5124 31.6693 17.4238 31.6503C17.3669 31.644 17.3353 31.6187 17.3227 31.5745C17.3163 31.5302 17.3163 31.4796 17.3353 31.4227C17.3543 31.3468 17.4175 31.2456 17.5124 31.1255C17.6136 31.0053 17.74 30.8725 17.8918 30.7207C18.0436 30.569 18.2143 30.4045 18.404 30.2275C18.5938 30.0567 18.7835 29.8733 18.9858 29.6899C18.6696 29.6457 18.3598 29.6014 18.0436 29.5508C17.6768 29.9113 17.3732 30.2148 17.1266 30.4615C17.0444 30.55 16.9685 30.6322 16.9053 30.7081C16.8041 30.784 16.6966 30.8472 16.5891 30.9168C16.3867 31.0369 16.1907 31.1381 16.0136 31.2077C15.8365 31.2772 15.6974 31.3025 15.6026 31.2836C15.5646 31.2772 15.5393 31.2519 15.5204 31.2203C15.5014 31.195 15.4951 31.1508 15.5077 31.1065C15.5393 30.999 15.6279 30.8599 15.767 30.6891C15.9124 30.5247 16.1274 30.3034 16.412 30.0251C16.6903 29.7532 17.0507 29.4054 17.4871 28.9943C17.9234 28.5833 18.4546 28.0774 19.0744 27.4766C18.7518 27.4387 18.4293 27.4007 18.1131 27.3564C17.7021 27.7548 17.348 28.1027 17.0318 28.3999C16.7219 28.6971 16.45 28.9564 16.2223 29.184C15.9883 29.4054 15.7923 29.5951 15.6342 29.7532C15.4761 29.9176 15.3433 30.0567 15.2358 30.1832C15.1346 30.3034 15.0524 30.4109 14.9955 30.5057C14.9386 30.6006 14.8943 30.6891 14.869 30.784C14.8311 30.9168 14.8437 31.0369 14.9069 31.1444C14.9702 31.2583 15.0903 31.3342 15.2674 31.3784C15.4129 31.41 15.5646 31.41 15.7354 31.3658C15.8998 31.3278 16.0705 31.2709 16.2413 31.1887C16.4057 31.1065 16.5764 31.0116 16.7409 30.9041C16.7598 30.8915 16.7788 30.8788 16.7978 30.8662C16.7472 30.9484 16.7092 31.0306 16.6903 31.1065C16.6397 31.2772 16.646 31.4227 16.7092 31.5365C16.7725 31.6503 16.8926 31.7262 17.0697 31.7578C17.2784 31.7958 17.4808 31.7768 17.6768 31.7073C17.8475 31.644 18.0499 31.5428 18.2649 31.41C18.1321 31.5428 17.993 31.682 17.8539 31.8148C18.1574 31.8527 18.4673 31.8907 18.7708 31.9159C18.8404 31.8401 18.9416 31.7389 19.068 31.6187C19.1882 31.4986 19.3336 31.3721 19.4854 31.2393C19.6372 31.1065 19.8016 30.98 19.966 30.8472C20.1368 30.7144 20.3012 30.6006 20.4593 30.4994C20.6174 30.3919 20.7628 30.3097 20.8956 30.2528C21.0284 30.1895 21.1359 30.1642 21.2182 30.1706C21.2751 30.1769 21.313 30.2022 21.3383 30.2401C21.3573 30.2781 21.3636 30.316 21.351 30.3666C21.332 30.4362 21.294 30.5057 21.2371 30.5753C21.1739 30.6385 21.1106 30.7018 21.0348 30.7524C20.9589 30.8093 20.8767 30.8472 20.8008 30.8788C20.7186 30.9105 20.649 30.9231 20.5794 30.9168C20.5415 30.9105 20.4972 30.8978 20.4466 30.8852C20.3961 30.8662 20.3328 30.8535 20.2633 30.8472C20.1557 30.8346 20.0925 30.8599 20.0735 30.9294C20.0672 30.961 20.0672 30.9863 20.0862 30.999C20.1052 31.018 20.1304 31.0243 20.1621 31.0306C20.2253 31.0369 20.2885 31.0369 20.3581 31.0306C20.4213 31.0243 20.4909 31.0116 20.5541 30.9927C20.5352 31.0685 20.4972 31.1318 20.4466 31.1887C20.3961 31.2456 20.3455 31.2962 20.2885 31.3531C20.2316 31.4037 20.181 31.4606 20.1304 31.5175C20.0799 31.5745 20.0419 31.6503 20.0166 31.7326C19.9724 31.8843 20.004 32.0045 20.0988 32.093C20.1937 32.1815 20.3391 32.2321 20.5225 32.2511C20.6237 32.2638 20.7186 32.2638 20.8197 32.2511C20.9146 32.2448 21.0158 32.2195 21.1296 32.1879C21.2371 32.1499 21.3573 32.0993 21.4901 32.0298C21.6166 31.9602 21.7683 31.8717 21.9327 31.7642C22.0339 31.6946 22.1351 31.6314 22.23 31.5618C22.2236 31.5808 22.2173 31.6061 22.211 31.625C22.1414 31.8717 22.1667 32.0677 22.2932 32.2068C22.426 32.346 22.641 32.4282 22.9572 32.4472C23.3177 32.4724 23.6655 32.4219 24.0007 32.3017C24.3358 32.1752 24.6963 31.9918 25.082 31.7326C25.2907 31.5998 25.4741 31.467 25.6449 31.3405C25.8093 31.2077 25.9674 31.0812 26.1065 30.9484C26.0938 30.9357 26.0749 30.9231 26.0559 30.9105V30.9041ZM23.4442 31.0496C23.5517 30.9231 23.6718 30.7966 23.8109 30.6765C23.9437 30.5563 24.0765 30.4488 24.2157 30.3666C24.3611 30.2844 24.4813 30.2401 24.5824 30.2464C24.7089 30.2528 24.7532 30.316 24.7216 30.4298C24.6963 30.5247 24.6394 30.6259 24.5572 30.7271C24.4749 30.8282 24.3674 30.9231 24.2346 31.0116C24.1018 31.0938 23.9501 31.1761 23.773 31.2393C23.6022 31.3025 23.4189 31.3468 23.2165 31.3721C23.2608 31.2836 23.3366 31.1761 23.4442 31.0496Z" fill="#F7E8C3"/>
</svg>
