<svg width="39" height="40" viewBox="0 0 39 40" fill="none" xmlns="http://www.w3.org/2000/svg">
<path d="M38.6866 14.5853C38.566 14.2293 38.3437 13.9165 38.0471 13.6856C37.7505 13.4547 37.3928 13.3158 37.0181 13.286L26.0594 12.4154L21.3173 1.91951C21.1663 1.58146 20.9206 1.29434 20.61 1.09279C20.2994 0.891247 19.9371 0.783895 19.5668 0.783692C19.1965 0.783488 18.834 0.890443 18.5232 1.09165C18.2123 1.29285 17.9664 1.57971 17.815 1.91759L13.0728 12.4154L2.11418 13.286C1.74598 13.3152 1.39399 13.4498 1.10031 13.6737C0.80662 13.8977 0.583682 14.2015 0.45816 14.5488C0.332639 14.8961 0.30985 15.2723 0.392519 15.6322C0.475189 15.9921 0.659817 16.3206 0.924315 16.5784L9.02268 24.4719L6.15856 36.8724C6.07159 37.2478 6.09946 37.6406 6.23856 37.9999C6.37766 38.3592 6.62155 38.6685 6.9386 38.8875C7.25565 39.1065 7.63122 39.2251 8.01656 39.2281C8.4019 39.231 8.77922 39.1181 9.09957 38.9039L19.5661 31.9272L30.0327 38.9039C30.3601 39.1213 30.7463 39.2332 31.1392 39.2246C31.5321 39.216 31.913 39.0872 32.2306 38.8557C32.5481 38.6242 32.7872 38.301 32.9156 37.9296C33.044 37.5582 33.0555 37.1564 32.9487 36.7782L29.433 24.4776L38.1522 16.6322C38.7231 16.1171 38.9326 15.3137 38.6866 14.5853Z" fill="#FCEDC7"/>
</svg>
