<svg width="39" height="40" viewBox="0 0 39 40" fill="none" xmlns="http://www.w3.org/2000/svg">
<path d="M38.6866 14.574C38.566 14.2181 38.3437 13.9053 38.0471 13.6744C37.7505 13.4435 37.3928 13.3045 37.0181 13.2748L26.0594 12.4041L21.3173 1.90828C21.1663 1.57023 20.9206 1.28311 20.61 1.08156C20.2994 0.880017 19.9371 0.772664 19.5668 0.772461C19.1965 0.772258 18.834 0.879212 18.5232 1.08042C18.2123 1.28162 17.9664 1.56848 17.815 1.90636L13.0728 12.4041L2.11418 13.2748C1.74598 13.304 1.39399 13.4386 1.10031 13.6625C0.80662 13.8865 0.583682 14.1903 0.45816 14.5376C0.332639 14.8849 0.30985 15.261 0.392519 15.6209C0.475189 15.9809 0.659817 16.3094 0.924315 16.5671L9.02268 24.4606L6.15856 36.8612C6.07159 37.2365 6.09946 37.6294 6.23856 37.9887C6.37766 38.348 6.62155 38.6572 6.9386 38.8762C7.25565 39.0952 7.63122 39.2139 8.01656 39.2169C8.4019 39.2198 8.77922 39.1068 9.09957 38.8927L19.5661 31.916L30.0327 38.8927C30.3601 39.1101 30.7463 39.222 31.1392 39.2133C31.5321 39.2047 31.913 39.076 32.2306 38.8445C32.5481 38.613 32.7872 38.2898 32.9156 37.9184C33.044 37.547 33.0555 37.1452 32.9487 36.767L29.433 24.4664L38.1522 16.6209C38.7231 16.1059 38.9326 15.3025 38.6866 14.574Z" fill="#2D9E5A"/>
</svg>
