<svg width="216" height="172" viewBox="0 0 216 172" fill="none" xmlns="http://www.w3.org/2000/svg">
<path d="M61.7389 3.51034e-05C45.5828 3.51034e-05 30.0884 6.41808 18.6643 17.8423C7.24025 29.2665 0.822266 44.761 0.822266 60.9173V111.084C0.822597 123.575 4.6624 135.763 11.8215 145.999C18.9805 156.234 29.1128 164.021 40.8454 168.305C52.5781 172.589 65.3442 173.163 77.4139 169.949C89.4837 166.735 100.274 159.888 108.322 150.337C116.371 159.888 127.161 166.735 139.231 169.949C151.3 173.163 164.066 172.589 175.799 168.305C187.532 164.021 197.664 156.234 204.823 145.999C211.982 135.763 215.822 123.575 215.822 111.084V60.9173C215.822 48.4268 211.982 36.2383 204.823 26.0032C197.664 15.768 187.532 7.98087 175.799 3.69683C164.066 -0.587208 151.3 -1.16109 139.231 2.05294C127.161 5.26696 116.371 12.1135 108.322 21.6651C102.611 14.8713 95.4803 9.411 87.4324 5.66809C79.3846 1.92518 70.6146 -0.00950394 61.7389 3.51034e-05ZM100.045 34.4004C96.0534 42.6699 93.9832 51.7348 93.9889 60.9173V111.084C93.9889 120.587 96.1676 129.582 100.045 137.601C94.3944 145.767 86.2827 151.913 76.8932 155.143C67.5037 158.373 57.3276 158.519 47.8496 155.558C38.3716 152.597 30.0877 146.686 24.2062 138.685C18.3248 130.685 15.1537 121.014 15.1556 111.084V103.918C15.1556 107.212 15.8044 110.473 17.065 113.517C18.3255 116.56 20.1731 119.325 22.5023 121.654C24.8315 123.984 27.5967 125.831 30.64 127.092C33.6832 128.352 36.9449 129.001 40.2389 129.001C43.5329 129.001 46.7947 128.352 49.8379 127.092C52.8812 125.831 55.6463 123.984 57.9755 121.654C60.3047 119.325 62.1524 116.56 63.4129 113.517C64.6735 110.473 65.3223 107.212 65.3223 103.918V68.084C65.3223 64.79 64.6735 61.5282 63.4129 58.4849C62.1524 55.4417 60.3047 52.6765 57.9755 50.3472C55.6463 48.018 52.8812 46.1704 49.8379 44.9098C46.7947 43.6492 43.5329 43.0004 40.2389 43.0004C36.9449 43.0004 33.6832 43.6492 30.64 44.9098C27.5967 46.1704 24.8315 48.018 22.5023 50.3472C20.1731 52.6765 18.3255 55.4417 17.065 58.4849C15.8044 61.5282 15.1556 64.79 15.1556 68.084V60.9173C15.1537 50.9875 18.3248 41.317 24.2062 33.3165C30.0877 25.316 38.3716 19.4042 47.8496 16.4436C57.3276 13.4829 67.5037 13.6284 76.8932 16.8587C86.2827 20.0889 94.3944 26.2351 100.045 34.4004ZM108.322 60.9173C108.322 48.5625 113.23 36.7137 121.966 27.9776C130.702 19.2414 142.551 14.3335 154.906 14.3335C167.26 14.3335 179.109 19.2414 187.845 27.9776C196.581 36.7137 201.489 48.5625 201.489 60.9173V111.084C201.489 123.439 196.581 135.288 187.845 144.024C179.109 152.76 167.26 157.668 154.906 157.668C142.551 157.668 130.702 152.76 121.966 144.024C113.23 135.288 108.322 123.439 108.322 111.084V103.918C108.322 110.57 110.965 116.95 115.669 121.654C120.373 126.358 126.753 129.001 133.406 129.001C140.058 129.001 146.438 126.358 151.142 121.654C155.846 116.95 158.489 110.57 158.489 103.918V68.084C158.489 61.4314 155.846 55.0513 151.142 50.3472C146.438 45.6432 140.058 43.0004 133.406 43.0004C126.753 43.0004 120.373 45.6432 115.669 50.3472C110.965 55.0513 108.322 61.4314 108.322 68.084V60.9173ZM55.8336 70.6712C53.1748 72.8929 48.7386 71.9397 45.9221 68.5642C43.1056 65.1815 42.9838 60.6449 45.6426 58.4304C48.3086 56.2087 52.7448 57.1547 55.5613 60.5374C58.3778 63.9201 58.4996 68.4567 55.8336 70.6712ZM149.144 60.5374C151.96 63.9201 152.082 68.4567 149.43 70.6712C146.764 72.8929 142.321 71.9397 139.512 68.5642C136.695 65.1815 136.573 60.6449 139.232 58.4304C141.898 56.2087 146.334 57.1547 149.151 60.5374" fill="black"/>
</svg>
