<svg width="14" height="9" viewBox="0 0 14 9" fill="none" xmlns="http://www.w3.org/2000/svg">
<path d="M1.07471 4.02592C0.778128 4.02592 0.537704 4.26635 0.537704 4.56293C0.537704 4.85951 0.778128 5.09993 1.07471 5.09993L1.07471 4.02592ZM13.0206 4.94265C13.2304 4.73293 13.2304 4.39292 13.0206 4.18321L9.60318 0.765741C9.39347 0.556029 9.05346 0.556029 8.84375 0.765741C8.63403 0.975454 8.63403 1.31547 8.84375 1.52518L11.8815 4.56293L8.84374 7.60068C8.63403 7.81039 8.63403 8.1504 8.84374 8.36011C9.05346 8.56983 9.39347 8.56983 9.60318 8.36011L13.0206 4.94265ZM1.07471 5.09993L12.6409 5.09993L12.6409 4.02592L1.07471 4.02592L1.07471 5.09993Z" fill="white"/>
</svg>
