<svg width="294" height="266" viewBox="0 0 294 266" fill="none" xmlns="http://www.w3.org/2000/svg">
<g clip-path="url(#clip0_190_11164)">
<path d="M6.15991 227.94C10.9599 223.85 17.0199 222.65 21.5399 224.45C22.0699 224.66 22.6299 224.81 23.1899 224.88C24.5099 225.06 25.8499 224.84 27.0299 224.17C43.3099 214.82 58.1099 207.17 69.5499 192.64C71.1499 190.61 72.6899 188.45 74.1499 186.13C84.9399 168.98 91.1299 184.33 93.4599 192.58C94.1899 195.17 93.1599 197.94 90.9099 199.42C70.8899 212.62 50.9899 226.83 41.2299 240.32C40.0599 241.95 39.7699 244.02 40.3899 245.93C41.9699 250.81 39.8599 257.11 34.7499 261.45C28.3899 266.87 19.7999 267.24 15.5599 262.26C14.6799 261.22 14.0599 260.04 13.6799 258.77C12.4199 254.51 9.48991 251.07 5.48991 249.15C4.28991 248.58 3.21991 247.77 2.33991 246.74C-1.90009 241.76 -0.180091 233.34 6.17991 227.92L6.15991 227.94Z" fill="#F7E8C3"/>
<path d="M293.32 116.3C293.36 120.28 292.54 124.26 290.82 127.94C290.81 127.98 290.79 128.02 290.77 128.06C290.25 129.16 289.71 130.24 289.14 131.3C287.6 134.18 285.88 136.89 283.98 139.41C277.66 147.79 269.49 154.01 260.14 157.31C226.18 169.3 175.92 170.19 156.37 179.2C136.82 188.2 86.0099 215.94 71.7099 204.5C57.3999 193.06 85.8499 157.84 85.9299 140.33C86.0099 122.83 109.4 40.1099 157.46 11.3099C163.51 7.66985 169.69 4.82985 175.89 2.70985C176.92 2.35985 177.96 2.01985 178.99 1.70985C182.12 0.759853 185.36 0.379853 188.56 0.539853C188.41 1.05985 188.28 1.58985 188.17 2.13985C187.73 4.22985 187.52 6.56985 187.52 9.09985C187.52 9.70985 187.53 10.3299 187.56 10.9599C187.58 11.5799 187.62 12.2099 187.67 12.8499C187.66 12.8799 187.67 12.9099 187.67 12.9399C187.71 13.4999 187.76 14.0699 187.82 14.6499C187.83 14.8199 187.85 14.9799 187.87 15.1399C187.94 15.7199 188.01 16.3099 188.1 16.9099C188.11 16.9499 188.11 16.9799 188.11 17.0099C188.2 17.5799 188.29 18.1599 188.39 18.7499C188.56 19.7899 188.76 20.8599 189 21.9399C189.14 22.6399 189.3 23.3499 189.48 24.0699C189.78 25.3299 190.11 26.6199 190.49 27.9299C190.66 28.5399 190.84 29.1499 191.03 29.7599C191.07 29.8899 191.11 30.0099 191.15 30.1399C191.35 30.7899 191.56 31.4399 191.78 32.0999C191.86 32.3399 191.94 32.5899 192.03 32.8399C192.23 33.4599 192.45 34.0798 192.68 34.7099C192.9 35.3199 193.13 35.9399 193.37 36.5599C193.5 36.9099 193.63 37.2699 193.78 37.6299C194.1 38.4399 194.42 39.2499 194.77 40.0699C195 40.6299 195.24 41.1999 195.49 41.7699C195.55 41.8999 195.61 42.0398 195.68 42.1898C195.97 42.8798 196.29 43.5699 196.61 44.2598C197.15 45.4198 197.71 46.5799 198.29 47.7399C198.75 48.6799 199.23 49.6199 199.74 50.5599C199.99 51.0399 200.25 51.5299 200.51 52.0098C200.91 52.7299 201.31 53.4498 201.72 54.1698C202.52 55.5598 203.35 56.9499 204.22 58.3299C204.43 58.6799 204.65 59.0299 204.87 59.3799C205.2 59.8999 205.54 60.4199 205.88 60.9299C207.1 62.7899 208.38 64.6399 209.72 66.4499C210.16 67.0499 210.61 67.6499 211.07 68.2399C212.77 70.4799 214.57 72.6799 216.46 74.8199C216.72 75.1099 216.97 75.3999 217.24 75.6799C217.63 76.1199 218.02 76.5599 218.44 76.9899C218.9 77.4999 219.39 78.0098 219.88 78.5199C220.26 78.9199 220.65 79.3199 221.05 79.7099C221.64 80.3199 222.25 80.9199 222.87 81.5099C223.24 81.8599 223.6 82.2099 223.97 82.5499C224.32 82.8799 224.66 83.1999 225.01 83.5199C225.48 83.9499 225.94 84.3799 226.41 84.7999C226.93 85.2599 227.45 85.7199 227.97 86.1699C228.66 86.7799 229.36 87.3699 230.05 87.9499C230.63 88.4398 231.2 88.9199 231.78 89.3799C231.81 89.4099 231.83 89.4299 231.86 89.4499C232.44 89.9199 233.02 90.3899 233.61 90.8499C234.95 91.9099 236.3 92.9399 237.66 93.9399C238.15 94.3099 238.65 94.6699 239.15 95.0199C239.52 95.2898 239.9 95.5599 240.28 95.8199C240.57 96.0399 240.87 96.2399 241.17 96.4499C241.31 96.5499 241.45 96.6399 241.58 96.7399C242.01 97.0299 242.44 97.3299 242.87 97.6099C243.48 98.0299 244.08 98.4299 244.69 98.8299C244.69 98.8299 244.71 98.8399 244.73 98.8499C245.35 99.2599 245.97 99.6599 246.59 100.05C246.74 100.14 246.88 100.23 247.03 100.33C247.51 100.63 247.98 100.92 248.45 101.2C249.07 101.58 249.69 101.96 250.3 102.32C250.77 102.61 251.24 102.88 251.71 103.15C251.86 103.23 252 103.32 252.15 103.4C252.23 103.45 252.3 103.49 252.38 103.54C252.87 103.83 253.36 104.1 253.84 104.37C258.14 106.77 262.35 108.84 266.36 110.55C266.72 110.7 267.08 110.85 267.43 111C269.21 111.74 270.95 112.42 272.64 113.01C272.97 113.13 273.31 113.25 273.64 113.36C274.31 113.59 274.96 113.81 275.61 114.01C275.94 114.11 276.26 114.21 276.58 114.31C277.22 114.5 277.84 114.68 278.46 114.85C278.84 114.96 279.21 115.06 279.58 115.15C279.94 115.24 280.28 115.33 280.63 115.41C284.82 116.41 288.45 116.81 291.3 116.58C292.02 116.53 292.69 116.43 293.31 116.3H293.32Z" fill="#AC1924"/>
<path d="M293.32 116.3C292.7 116.43 292.03 116.53 291.31 116.58C288.46 116.81 284.83 116.41 280.64 115.41C280.29 115.33 279.95 115.24 279.59 115.15C279.22 115.06 278.85 114.96 278.47 114.85C277.85 114.68 277.23 114.5 276.59 114.31C276.27 114.21 275.95 114.11 275.62 114.01C274.97 113.81 274.32 113.59 273.65 113.36C273.32 113.25 272.98 113.13 272.65 113.01C270.96 112.42 269.22 111.74 267.44 111C267.09 110.85 266.73 110.7 266.37 110.55C262.36 108.84 258.15 106.77 253.85 104.37C253.37 104.1 252.88 103.83 252.39 103.54C252.31 103.49 252.24 103.45 252.16 103.4C252.01 103.32 251.87 103.23 251.72 103.15C251.25 102.88 250.78 102.6 250.31 102.32C249.7 101.96 249.08 101.58 248.46 101.2C247.98 100.92 247.51 100.62 247.04 100.33C246.89 100.23 246.75 100.14 246.6 100.05C245.98 99.65 245.36 99.26 244.74 98.85C244.72 98.85 244.71 98.83 244.7 98.83C244.09 98.43 243.48 98.02 242.88 97.61C242.45 97.32 242.02 97.03 241.59 96.74C241.46 96.64 241.32 96.55 241.18 96.45C240.88 96.24 240.58 96.04 240.29 95.82C239.91 95.56 239.53 95.29 239.16 95.02C238.66 94.67 238.16 94.31 237.67 93.94C236.31 92.94 234.96 91.91 233.62 90.85C233.03 90.39 232.45 89.92 231.87 89.45C231.84 89.43 231.82 89.41 231.79 89.38C231.21 88.91 230.64 88.44 230.06 87.95C229.37 87.37 228.67 86.78 227.98 86.17C227.46 85.72 226.94 85.26 226.42 84.8C225.95 84.38 225.49 83.95 225.02 83.52C224.67 83.2 224.33 82.88 223.98 82.55C223.61 82.21 223.25 81.86 222.88 81.51C222.26 80.92 221.65 80.32 221.06 79.71C220.66 79.32 220.27 78.92 219.89 78.52C219.4 78.01 218.91 77.5 218.45 76.99C218.03 76.56 217.64 76.12 217.25 75.68C216.99 75.4 216.73 75.11 216.47 74.82C214.58 72.68 212.78 70.48 211.08 68.24C210.62 67.65 210.17 67.05 209.73 66.45C208.39 64.64 207.11 62.79 205.89 60.93C205.55 60.42 205.21 59.9 204.88 59.38C204.66 59.03 204.44 58.68 204.23 58.33C203.36 56.95 202.53 55.56 201.73 54.17C201.32 53.45 200.92 52.73 200.52 52.01C200.26 51.53 200 51.04 199.75 50.56C199.25 49.62 198.77 48.68 198.3 47.74C197.72 46.58 197.16 45.42 196.62 44.26C196.3 43.57 195.98 42.88 195.69 42.19C195.62 42.04 195.56 41.9 195.5 41.77C195.25 41.2 195.01 40.63 194.78 40.07C194.43 39.25 194.11 38.44 193.79 37.63C193.65 37.27 193.51 36.92 193.38 36.56C193.14 35.94 192.91 35.32 192.69 34.71C192.46 34.08 192.24 33.46 192.04 32.84C191.95 32.59 191.87 32.34 191.79 32.1C191.57 31.44 191.36 30.79 191.16 30.14C191.12 30.01 191.08 29.89 191.04 29.76C190.85 29.15 190.67 28.54 190.5 27.93C190.12 26.62 189.79 25.33 189.49 24.07C189.31 23.35 189.15 22.64 189.01 21.94C188.77 20.86 188.57 19.79 188.4 18.75C188.3 18.16 188.21 17.58 188.12 17.01C188.12 16.98 188.12 16.95 188.11 16.91C188.02 16.31 187.95 15.72 187.88 15.14C187.86 14.98 187.84 14.82 187.83 14.65C187.77 14.07 187.72 13.5 187.68 12.94C187.68 12.91 187.66 12.88 187.68 12.85C187.63 12.21 187.59 11.58 187.57 10.96C187.54 10.33 187.53 9.71004 187.53 9.10004C187.53 6.57004 187.74 4.23004 188.18 2.14004C188.29 1.59004 188.42 1.06004 188.57 0.540039C192.32 0.740039 196.02 1.67004 199.45 3.35004C199.85 3.55004 200.26 3.75004 200.67 3.95004C200.8 4.01004 200.93 4.08004 201.06 4.15004C202.68 4.98004 204.35 5.89004 206.05 6.88004C206.3 7.01004 206.55 7.16004 206.79 7.31004C207.68 7.83004 208.58 8.37004 209.49 8.94004C210.07 9.30004 210.65 9.67004 211.24 10.05C212.41 10.8 213.59 11.58 214.78 12.39C215.37 12.79 215.97 13.21 216.57 13.63C217.64 14.37 218.71 15.15 219.78 15.94C221.36 17.1 222.95 18.31 224.54 19.56C225.61 20.4 226.67 21.26 227.74 22.14C231.23 25.01 234.68 28.07 238.03 31.26C238.59 31.78 239.14 32.31 239.68 32.84C239.72 32.88 239.76 32.92 239.8 32.96C240.21 33.36 240.61 33.76 241.01 34.16C241.53 34.67 242.04 35.18 242.54 35.7C243.22 36.39 243.89 37.08 244.55 37.78C245.99 39.3 247.4 40.83 248.76 42.39C249.21 42.89 249.64 43.39 250.07 43.89C250.83 44.77 251.56 45.65 252.3 46.54C252.87 47.24 253.43 47.95 253.99 48.66C256.95 52.42 259.88 56.28 262.74 60.18C263.25 60.88 263.76 61.58 264.26 62.28C264.77 62.98 265.28 63.68 265.78 64.39C267.27 66.47 268.73 68.55 270.16 70.62C270.5 71.12 270.84 71.61 271.17 72.1C273.26 75.17 275.28 78.21 277.21 81.21C277.46 81.59 277.7 81.97 277.94 82.35C279 84.03 280.04 85.68 281.03 87.32C281.22 87.62 281.4 87.91 281.57 88.21C282.39 89.55 283.17 90.87 283.93 92.17C284.24 92.71 284.54 93.23 284.84 93.76C287.11 97.72 289.12 101.49 290.81 105C292.43 108.58 293.29 112.45 293.33 116.3H293.32Z" fill="#AC1924"/>
<path d="M248.54 73.0599C246.2 76.8899 239.39 72.8099 232.96 66.1999C227.2 60.2699 226.19 51.3499 230.23 49.3999C234.01 47.5799 238.29 48.3699 245.81 56.2599C251.51 62.2399 250.75 69.4399 248.54 73.0599Z" fill="#F7E8C3"/>
<path d="M237.43 109.62C245.19 105.33 251.28 112.1 253.7 108.18L237.43 109.62Z" fill="#F7E8C3"/>
<path d="M260.6 120.58C259.15 119.84 258.17 118.44 257.88 116.84C257.88 116.83 257.88 116.82 257.87 116.81C257.23 113.34 255.42 110.03 254.46 106.65C254.22 105.89 254 105.13 253.85 104.37C253.52 102.75 253.46 101.13 253.94 99.4701C254.62 96.8301 253.61 94.0501 252.5 91.7501C251.01 88.6501 249.37 85.6701 247.88 82.5901C249.16 85.7601 250.6 88.8701 251.87 92.0201C252.78 94.3501 253.54 96.7701 252.77 99.1701C252.26 100.56 252.11 101.97 252.16 103.4C252.22 104.81 252.48 106.23 252.83 107.63C252.17 108.68 251.11 108.54 248.47 107.89C246.32 107.37 243.61 106.7 240.54 107.35H240.52C239.71 107.52 238.86 107.36 238.19 106.88C232.14 102.55 226.3 97.8701 220.77 92.8501C208.26 81.5201 197.28 68.4701 188.88 53.9901C188.4 53.1501 189.08 52.1301 190.04 52.2001C193.22 52.4401 196.49 52.1301 199.56 52.0601C199.89 52.0401 200.21 52.0201 200.53 52.0101C203.01 51.8801 205.31 52.0101 207.33 53.7501C209.57 55.5301 212.31 56.7101 215.13 57.1901C212.36 56.4601 209.87 55.1301 207.79 53.1601C205.75 50.9801 202.58 50.6101 199.76 50.5601H199.57C195.96 50.3201 191.78 50.4301 188.18 49.4301C186.81 49.0501 185.65 48.1101 185.01 46.8401C179.5 35.9201 175.45 24.2801 173.26 12.0001C173.12 11.2101 172.98 10.4201 172.86 9.62012C172.86 13.4101 173.06 17.1701 173.5 20.8701C175.82 40.8001 184.33 59.4201 196.54 75.5101C197.29 76.5001 198.05 77.4901 198.83 78.4601C198.99 78.6501 199.14 78.8401 199.3 79.0301C200.09 79.9801 200.9 80.9501 201.68 81.8901C201.71 81.9301 201.75 81.9701 201.79 82.0201C213.24 95.4001 227.22 106.73 242.07 115.23C254.75 122.4 268.62 127.93 283.06 129.95C275.27 127.43 267.79 124.26 260.61 120.58H260.6ZM251.89 115.78C249.39 114.32 246.92 112.81 244.5 111.23C243.54 110.6 242.6 109.95 241.65 109.3C242.48 109.19 243.28 109.18 244.05 109.24C245.47 109.34 246.78 109.66 247.97 109.95C249.49 110.32 251.04 110.69 252.36 110.39C253 110.24 253.66 110.6 253.84 111.23C253.93 111.53 254.01 111.82 254.09 112.11C254.24 112.65 254.39 113.2 254.55 113.77C254.66 114.19 254.62 114.59 254.46 114.94C254.07 115.86 252.9 116.37 251.89 115.78Z" fill="#F7E8C3"/>
<path d="M288.522 105.44C286.861 101.966 284.885 98.2336 282.654 94.3136C282.359 93.789 282.064 93.2742 281.759 92.7397C281.012 91.4528 280.246 90.1461 279.44 88.8197C280.207 90.1065 280.954 91.4132 281.691 92.7199C285.711 100.263 289.79 108.281 289.023 116.903C288.974 117.507 288.905 118.111 288.797 118.725C288.355 121.635 287.873 124.902 285.701 126.594C284.944 126.99 284.747 127 283.715 126.97C279.44 126.862 274.919 126.089 270.623 125.149L270.948 125.327L270.26 125.07C270.378 125.1 270.505 125.119 270.623 125.149L256.155 117.131L253.855 115.854C253.531 115.676 253.177 115.488 252.804 115.28C250.051 113.775 245.973 111.488 242.572 109.637C241.284 108.925 240.095 108.281 239.112 107.766C238.276 107.321 237.588 106.974 237.136 106.767C233.765 104.114 228.988 100.471 225.617 97.9069L219.68 93.4128L214.215 89.275L214.441 89.5225L214.029 89.1364L214.215 89.275L207.08 81.5934C204.947 79.3265 201.831 76.0994 199.688 73.8722L199.855 74.1295L199.6 73.7831C199.6 73.7831 199.659 73.8425 199.688 73.8722L191.619 61.6766C189.545 58.5683 185.466 52.322 183.431 49.1939C180.817 42.9279 177.662 35.0879 175.096 28.2279C174.349 24.0109 172.737 18.2794 172.983 13.3794C173.199 9.10299 174.841 5.45026 179.736 3.9951C182.33 3.32197 184.984 3.25268 187.648 3.61894C198.096 5.0345 208.711 13.1913 216.525 19.002C238.817 36.8994 263.802 64.6562 279.44 88.8197C277.543 85.85 271.272 75.9114 269.218 72.8724C268.893 72.3873 268.559 71.9023 268.225 71.4073C266.82 69.3582 265.385 67.2992 263.92 65.2402C263.429 64.5374 262.927 63.8445 262.426 63.1515C261.935 62.4586 261.433 61.7657 260.932 61.0728C258.121 57.2121 255.241 53.3911 252.332 49.6691C251.781 48.9663 251.231 48.2634 250.671 47.5705C249.943 46.6895 249.226 45.8184 248.479 44.9473C248.056 44.4523 247.634 43.9574 247.191 43.4624C245.855 41.9182 244.469 40.4036 243.053 38.899C242.405 38.2061 241.746 37.523 241.078 36.84C240.586 36.3252 240.085 35.8204 239.574 35.3155C239.181 34.9196 238.788 34.5236 238.385 34.1277C238.345 34.0881 238.306 34.0485 238.267 34.0089C237.736 33.4842 237.195 32.9596 236.645 32.4448C233.352 29.2871 229.961 26.258 226.531 23.4169C225.479 22.5458 224.437 21.6945 223.386 20.863C221.823 19.6256 220.26 18.4278 218.707 17.2796C217.655 16.4975 216.604 15.7254 215.552 14.9929C214.962 14.5771 214.373 14.1614 213.793 13.7654C212.623 12.9636 211.463 12.1915 210.313 11.4491C209.733 11.0729 209.163 10.7066 208.593 10.3503C207.699 9.78602 206.814 9.25147 205.939 8.73673C205.704 8.58824 205.458 8.43976 205.212 8.31107C203.541 7.33107 201.9 6.43026 200.308 5.60864C200.18 5.53935 200.052 5.47005 199.924 5.41066C199.521 5.21268 199.118 5.0147 198.725 4.81672C195.354 3.15369 191.717 2.23308 188.031 2.0351C184.886 1.87672 181.701 2.25288 178.625 3.19328C177.613 3.50015 176.59 3.83672 175.578 4.18318C174.664 4.9751 173.887 5.91551 173.347 6.9945C171.116 11.8648 172.079 17.0717 173.219 22.1598C173.691 24.2584 174.202 26.3471 174.526 28.3862C177.19 35.5432 179.657 42.7596 182.075 49.9958C183.824 53.2723 187.353 59.9146 189.044 63.2109C189.093 63.2802 194.843 74.3077 195.865 76.2479C195.953 76.4261 196.012 76.5251 196.012 76.535C196.641 77.3467 197.359 78.2376 198.116 79.1681C198.273 79.3562 198.42 79.5443 198.578 79.7324C199.354 80.6728 200.15 81.633 200.917 82.5635C200.946 82.6031 200.986 82.6427 201.025 82.6922C201.752 83.5732 202.44 84.4245 203.06 85.1966L210.028 93.4722C210.127 93.6009 210.323 93.7593 210.441 93.8484C214.382 96.9566 223.71 104.391 227.553 107.351L233.303 111.795L233.519 111.954C238.64 114.765 245.796 118.398 251.034 121.189L268.382 130.188L268.756 130.386L269.07 130.445C273.926 131.385 278.663 132.039 283.725 131.989C284.915 132.049 285.966 131.861 286.89 131.474C287.45 130.425 287.981 129.356 288.492 128.267C288.512 128.228 288.532 128.188 288.541 128.148C290.232 124.506 291.038 120.566 290.999 116.626C290.959 112.815 290.114 108.984 288.522 105.44Z" fill="#F7E8C3"/>
<path d="M279.44 88.8197C280.246 90.1461 281.012 91.4528 281.759 92.7397C282.064 93.2742 282.359 93.789 282.654 94.3136C284.885 98.2336 286.861 101.966 288.522 105.44C290.114 108.984 290.959 112.815 290.999 116.626C291.038 120.566 290.232 124.506 288.541 128.148C288.532 128.188 288.512 128.228 288.492 128.267C287.981 129.356 287.45 130.425 286.89 131.474C285.966 131.861 284.915 132.049 283.725 131.989C278.663 132.039 273.926 131.385 269.07 130.445L268.756 130.386L268.382 130.188L251.034 121.189C245.796 118.398 238.64 114.765 233.519 111.954L233.303 111.795L227.553 107.351C223.71 104.391 214.382 96.9566 210.441 93.8484C210.323 93.7593 210.127 93.6009 210.028 93.4722L203.06 85.1966C202.44 84.4245 201.752 83.5732 201.025 82.6922C200.986 82.6427 200.946 82.6031 200.917 82.5635C200.15 81.633 199.354 80.6728 198.578 79.7324C198.42 79.5443 198.273 79.3562 198.116 79.1681C197.359 78.2376 196.641 77.3467 196.012 76.535C196.012 76.5251 195.953 76.4261 195.865 76.2479C194.843 74.3077 189.093 63.2802 189.044 63.2109C187.353 59.9146 183.824 53.2723 182.075 49.9958C179.657 42.7596 177.19 35.5432 174.526 28.3862C174.202 26.3471 173.691 24.2584 173.219 22.1598C172.079 17.0717 171.116 11.8648 173.347 6.9945C173.887 5.91551 174.664 4.9751 175.578 4.18318C176.59 3.83672 177.613 3.50015 178.625 3.19328C181.701 2.25288 184.886 1.87672 188.031 2.0351C191.717 2.23308 195.354 3.15369 198.725 4.81672C199.118 5.0147 199.521 5.21268 199.924 5.41066C200.052 5.47005 200.18 5.53935 200.308 5.60864C201.9 6.43026 203.541 7.33107 205.212 8.31107C205.458 8.43976 205.704 8.58824 205.939 8.73673C206.814 9.25147 207.699 9.78602 208.593 10.3503C209.163 10.7066 209.733 11.0729 210.313 11.4491C211.463 12.1915 212.623 12.9636 213.793 13.7654C214.373 14.1614 214.962 14.5771 215.552 14.9929C216.604 15.7254 217.655 16.4975 218.707 17.2796C220.26 18.4278 221.823 19.6256 223.386 20.863C224.437 21.6945 225.479 22.5458 226.531 23.4169C229.961 26.258 233.352 29.2871 236.645 32.4448C237.195 32.9596 237.736 33.4842 238.267 34.0089C238.306 34.0485 238.345 34.0881 238.385 34.1277C238.788 34.5236 239.181 34.9196 239.574 35.3155C240.085 35.8204 240.586 36.3252 241.078 36.84C241.746 37.523 242.405 38.2061 243.053 38.899C244.469 40.4036 245.855 41.9182 247.191 43.4624C247.634 43.9574 248.056 44.4523 248.479 44.9473C249.226 45.8184 249.943 46.6895 250.671 47.5705C251.231 48.2634 251.781 48.9663 252.332 49.6691C255.241 53.3911 258.121 57.2121 260.932 61.0728C261.433 61.7657 261.935 62.4586 262.426 63.1515C262.927 63.8445 263.429 64.5374 263.92 65.2402C265.385 67.2992 266.82 69.3582 268.225 71.4073C268.559 71.9023 268.893 72.3873 269.218 72.8724C271.272 75.9114 277.543 85.85 279.44 88.8197ZM279.44 88.8197C280.207 90.1065 280.954 91.4132 281.691 92.7199C285.711 100.263 289.79 108.281 289.023 116.903C288.974 117.507 288.905 118.111 288.797 118.725C288.355 121.635 287.873 124.902 285.701 126.594C284.944 126.99 284.747 127 283.715 126.97C279.44 126.862 274.919 126.089 270.623 125.149M279.44 88.8197C263.802 64.6562 238.817 36.8994 216.525 19.002C208.711 13.1913 198.096 5.0345 187.648 3.61894C184.984 3.25268 182.33 3.32197 179.736 3.9951C174.841 5.45026 173.199 9.10299 172.983 13.3794C172.737 18.2794 174.349 24.0109 175.096 28.2279C177.662 35.0879 180.817 42.9279 183.431 49.1939C185.466 52.322 189.545 58.5683 191.619 61.6766L199.688 73.8722M270.623 125.149L270.948 125.327L270.26 125.07C270.378 125.1 270.505 125.119 270.623 125.149ZM270.623 125.149L256.155 117.131L253.855 115.854C253.531 115.676 253.177 115.488 252.804 115.28C250.051 113.775 245.973 111.488 242.572 109.637C241.284 108.925 240.095 108.281 239.112 107.766C238.276 107.321 237.588 106.974 237.136 106.767C233.765 104.114 228.988 100.471 225.617 97.9069L219.68 93.4128L214.215 89.275M214.215 89.275L214.441 89.5225L214.029 89.1364L214.215 89.275ZM214.215 89.275L207.08 81.5934C204.947 79.3265 201.831 76.0994 199.688 73.8722M199.688 73.8722L199.855 74.1295L199.6 73.7831C199.6 73.7831 199.659 73.8425 199.688 73.8722Z" stroke="#F7E8C3" stroke-miterlimit="135"/>
</g>
<defs>
<clipPath id="clip0_190_11164">
<rect width="293.82" height="265.78" fill="white"/>
</clipPath>
</defs>
</svg>
