<svg width="108" height="110" viewBox="0 0 108 110" fill="none" xmlns="http://www.w3.org/2000/svg">
<path d="M63.5188 33.168L74.1747 22.5066C72.914 21.2463 71.9836 19.6945 71.4659 17.9887C70.9481 16.2829 70.859 14.4758 71.2065 12.7274C71.5539 10.9789 72.3272 9.34317 73.4578 7.96495C74.5884 6.58674 76.0414 5.50861 77.6882 4.82607C79.335 4.14353 81.1247 3.87764 82.8988 4.05195C84.6728 4.22626 86.3766 4.83539 87.859 5.82539C89.3415 6.81539 90.5569 8.1557 91.3976 9.72761C92.2384 11.2995 92.6785 13.0545 92.679 14.8371C94.4621 14.8359 96.218 15.2744 97.791 16.114C99.364 16.9536 100.706 18.1683 101.697 19.6504C102.688 21.1324 103.299 22.8362 103.474 24.6106C103.65 26.3851 103.385 28.1754 102.703 29.8229C102.021 31.4705 100.943 32.9244 99.5652 34.0558C98.187 35.1872 96.5511 35.9612 94.8023 36.3092C93.0535 36.6571 91.2458 36.5684 89.5395 36.0507C87.8333 35.533 86.281 34.6024 85.0204 33.3414L75.1558 43.2114M30.3477 74.4584L35.7678 79.8785M21.6972 88.529C36.5104 103.348 53.6759 110.209 60.0174 103.863C66.3698 97.5101 59.5079 80.3501 44.6893 65.5369C29.8761 50.7183 12.7106 43.8564 6.3691 50.2034C0.0167291 56.5558 6.87859 73.7158 21.6972 88.529Z" stroke="#FCEDC7" stroke-width="7" stroke-linecap="round" stroke-linejoin="round"/>
<path d="M60.0248 103.863C81.1904 82.6922 86.3395 53.5211 71.5209 38.708C56.7077 23.8894 27.5366 29.0385 6.37109 50.204" stroke="#FCEDC7" stroke-width="7" stroke-linecap="round" stroke-linejoin="round"/>
</svg>
