<svg width="1323" height="765" viewBox="0 0 1323 765" fill="none" xmlns="http://www.w3.org/2000/svg">
<path d="M5.46905 19.7017L34.5744 108.869C40.4494 126.85 41.472 146.066 37.5677 164.576L18.1765 256.346C10.2192 294.016 22.9638 333.071 51.6231 358.801L121.435 421.477C135.519 434.114 146.023 450.246 151.889 468.226L180.994 557.394C192.939 593.996 223.523 621.454 261.208 629.408L353.014 648.792C371.532 652.704 388.692 661.42 402.775 674.057L472.587 736.733C501.246 762.463 541.46 770.956 578.077 759.006L667.28 729.912C685.268 724.04 704.492 723.018 723.009 726.92L814.815 746.304C852.501 754.258 891.571 741.518 917.312 712.871L980.012 643.086C992.655 629.009 1008.79 618.508 1026.78 612.645L1115.98 583.551C1152.6 571.611 1180.07 541.039 1188.03 503.369L1207.42 411.599C1211.33 393.089 1220.05 375.936 1232.69 361.858L1295.39 292.074C1321.13 263.426 1329.63 223.228 1317.68 186.626L1288.57 97.4586C1282.7 79.4782 1281.67 60.2619 1285.58 41.7519L1304.97 -50.0177C1312.93 -87.6882 1300.18 -126.743 1271.52 -152.473L1201.71 -215.149C1187.63 -227.786 1177.12 -243.918 1171.26 -261.898L1142.15 -351.066C1130.21 -387.668 1099.62 -415.126 1061.94 -423.08L970.131 -442.464C951.613 -446.376 934.453 -455.092 920.37 -467.729L850.558 -530.405C821.899 -556.135 781.694 -564.628 745.068 -552.678L655.865 -523.585C637.877 -517.712 618.653 -516.69 600.136 -520.592L508.33 -539.976C470.644 -547.93 431.574 -535.19 405.833 -506.543L343.133 -436.758C330.49 -422.681 314.353 -412.18 296.365 -406.317L207.162 -377.223C170.545 -365.283 143.076 -334.711 135.119 -297.041L115.728 -205.271C111.814 -186.761 103.094 -169.608 90.4519 -155.53L27.7513 -85.746C2.01104 -57.0983 -6.48542 -16.9002 5.46905 19.7017Z" fill="#161512"/>
<path d="M661.395 231.49C732.305 231.49 789.789 174.028 789.789 103.146C789.789 32.2636 732.305 -25.1978 661.395 -25.1978C590.484 -25.1978 533 32.2636 533 103.146C533 174.028 590.484 231.49 661.395 231.49Z" fill="#FCEDC7"/>
<path d="M404.002 -157.417C336.95 -113.465 286.372 -48.0854 267.863 30.4986C264.192 45.5148 261.784 61.1071 260.622 76.5321C260.464 79.2826 259.925 85.5176 259.943 88.1845C259.915 90.1265 259.795 94.0293 259.748 95.9713C259.609 101.091 259.897 106.425 259.906 111.564C260.055 114.11 260.482 120.642 260.631 123.253C261.022 127.676 261.607 132.425 262.007 136.866C262.593 140.453 263.42 146.855 264.061 150.414C264.563 153.053 265.781 159.307 266.265 161.983C271.377 185.148 278.86 207.933 289.105 229.351C291.633 234.982 295.277 241.821 298.168 247.276C300.659 251.987 303.625 256.652 306.237 261.316C308.273 264.504 311.907 270.153 313.897 273.359L315.068 275.032L317.401 278.405C318.954 280.663 320.497 282.939 322.031 285.244C319 282.809 315.616 279.715 312.623 277.15C309.119 274.065 304.062 268.825 300.734 265.535C297.554 261.874 294.152 258.296 291.047 254.607C288.091 250.798 284.866 246.914 282.021 243.057L277.215 236.172C207.951 135.036 221.207 -6.59578 306.172 -94.6485C333.279 -122.711 366.799 -145.337 404.002 -157.399V-157.417Z" fill="#FCEDC7"/>
<path d="M333.929 -207.298C298.576 -184.922 266.217 -157.603 239.752 -125.155C236.275 -121.178 231.228 -114.59 228.021 -110.213C226.134 -107.676 224.181 -105.195 222.452 -102.547C216.968 -94.8254 212.004 -86.8062 207.04 -78.7592C204.26 -73.7135 200.458 -67.2741 197.967 -62.2377C196.08 -58.4001 194.091 -54.4973 192.157 -50.6782C190.744 -47.5282 187.416 -40.0015 185.947 -36.7214C183.921 -31.3969 180.974 -24.4743 179.18 -19.2056C176.001 -10.3688 173.342 -1.38321 170.73 7.6302C167.672 19.6171 164.836 32.1059 163.033 44.3158C162.104 49.6309 161.127 57.4456 160.625 62.9094C160.347 65.6785 159.9 69.5069 159.807 72.2481C159.398 77.6561 158.869 85.6195 158.896 90.9904C158.664 97.1697 158.85 103.6 158.989 109.77C158.989 115.076 159.705 123.216 160.031 128.549C160.532 133.883 161.267 139.589 161.778 144.932C162.81 151.185 163.898 159.688 165.292 165.858C170.842 195.37 180.584 224.305 193.263 251.504C194.974 254.97 198.013 261.065 199.64 264.429C201.834 268.62 204.363 272.931 206.575 277.122C209.234 282.038 213.705 288.96 216.512 293.764C219.013 297.546 223.475 304.19 225.929 307.991C229.173 312.423 232.752 317.441 235.922 321.957C232.427 318.844 228.392 315.285 224.916 312.07C223.958 311.252 222.22 309.543 221.355 308.641C217.312 304.404 211.4 298.661 207.765 294.229C206.259 292.556 200.96 286.293 199.677 284.779C196.229 280.189 192.464 275.515 189.127 270.878C185.817 265.879 181.03 259.272 178.102 254.189L172.952 245.575C170.051 240.725 166.222 232.938 163.507 227.827C151.144 202.153 141.996 174.462 136.94 146.372C136.187 141.679 135.145 136.011 134.551 131.328C134.151 127.871 133.268 119.49 132.896 116.172C132.347 107.828 131.734 99.149 131.845 90.7767C131.855 87.7567 131.725 83.5659 131.892 80.6017C132.152 74.7198 132.385 66.0595 133.1 60.2798C133.742 52.3071 135.071 42.8662 136.289 35.0236C138.148 23.5385 141.141 11.5422 144.097 0.252213C149.814 -19.2056 157.074 -38.459 166.352 -56.523L168.611 -61.0762L169.178 -62.2098C173.119 -69.2068 176.912 -76.3339 181.355 -83.0243C216.819 -139.298 270.94 -185.118 333.929 -207.289V-207.298Z" fill="#FCEDC7"/>
<path d="M486.233 -125.713C443.295 -96.4986 406.986 -57.1369 384.824 -9.98837C367.069 27.3012 358.331 68.8372 359.419 110.085C359.409 111.804 359.54 115.261 359.688 116.98C359.911 123.001 360.655 129.961 361.231 135.927C361.743 139.105 362.431 144.773 362.988 147.923C363.425 150.255 364.466 155.812 364.875 158.172C369.291 178.736 375.761 198.974 384.648 218.06C389.11 228.068 394.139 237.184 399.549 246.652C402.486 251.299 406.121 257.496 409.263 262.012C410.62 264.038 411.959 266.101 413.288 268.173C410.546 266.045 407.488 263.332 404.783 261.083C401.538 258.305 397.104 253.826 394.037 250.862C386.451 242.824 379.033 234.015 372.758 224.881C309.974 135.007 321.835 7.62029 398.341 -70.6013C422.696 -95.4951 452.842 -115.492 486.233 -125.713Z" fill="#FCEDC7"/>
<path d="M560.135 -79.8919C535.594 -61.7257 513.795 -40.2143 497.09 -14.6794C455.798 46.9278 449.951 127.426 479.819 195.194C482.738 202.117 486.224 209.207 489.784 215.813C491.308 218.852 493.837 222.996 495.501 225.951C497.425 229.296 499.684 232.697 501.618 236.061C498.912 234.082 496.021 231.749 493.381 229.649C491.234 227.772 487.692 224.52 485.629 222.597C480.693 217.625 475.905 212.375 471.564 206.874C415.25 135.129 423.607 27.0054 488.12 -36.9806C508.106 -56.8194 532.824 -72.6068 560.135 -79.8919Z" fill="#FCEDC7"/>
</svg>
