<svg width="1440" height="152" viewBox="0 0 1440 152" fill="none" xmlns="http://www.w3.org/2000/svg">
<rect x="-54" y="0.899902" width="1605" height="151" fill="#161512"/>
<path d="M-271.2 71.7998H-281.4V28.8998H-268.2L-259.38 56.2598H-259.26L-250.44 28.8998H-237.24V71.7998H-247.44V45.0998H-247.56L-255.54 71.7998H-263.1L-271.08 45.0998H-271.2V71.7998ZM-210.573 72.7598C-224.193 72.7598 -231.813 63.2798 -231.813 50.3198C-231.813 37.4198 -224.193 27.9398 -210.573 27.9398C-197.073 27.9398 -189.333 37.4198 -189.333 50.3198C-189.333 63.2798 -197.073 72.7598 -210.573 72.7598ZM-210.573 63.9398C-202.773 63.9398 -200.373 57.8198 -200.373 50.3198C-200.373 42.8798 -202.773 36.7598 -210.573 36.7598C-218.433 36.7598 -220.773 42.8798 -220.773 50.3198C-220.773 57.8198 -218.433 63.9398 -210.573 63.9398ZM-163.339 71.7998H-174.739L-189.019 28.8998H-177.199L-169.099 58.9598H-168.979L-160.819 28.8998H-149.419L-163.339 71.7998ZM-112.582 71.7998H-145.462V28.8998H-112.942V37.7198H-134.662V45.3398H-115.942V54.1598H-134.662V62.9798H-112.582V71.7998ZM-65.6606 71.7998H-95.5406V28.8998H-84.7406V62.9798H-65.6606V71.7998ZM-50.3461 71.7998H-61.1461V28.8998H-50.3461V71.7998ZM-4.21781 71.7998H-16.8178L-27.9178 55.0598L-32.3578 60.2198V71.7998H-43.1578V28.8998H-32.3578V47.1998L-16.9978 28.8998H-5.41781L-21.5578 47.6798L-4.21781 71.7998ZM31.148 71.7998H-1.73203V28.8998H30.788V37.7198H9.06797V45.3398H27.788V54.1598H9.06797V62.9798H31.148V71.7998ZM58.3898 71.7998H48.1898V28.8998H61.3898L70.2098 56.2598H70.3298L79.1498 28.8998H92.3498V71.7998H82.1498V45.0998H82.0298L74.0498 71.7998H66.4898L58.5098 45.0998H58.3898V71.7998ZM132.457 71.7998H99.5766V28.8998H132.097V37.7198H110.377V45.3398H129.097V54.1598H110.377V62.9798H132.457V71.7998ZM145.753 71.7998H134.173L150.493 28.8998H161.353L177.793 71.7998H165.973L163.213 62.8598H148.513L145.753 71.7998ZM155.833 38.7998L150.973 54.6398H160.813L155.953 38.7998H155.833ZM196.446 71.7998H185.646V37.7198H173.166V28.8998H208.866V37.7198H196.446V71.7998ZM226.956 71.7998H219.156L235.776 28.8998H243.576L226.956 71.7998ZM243.831 71.7998H236.031L252.651 28.8998H260.451L243.831 71.7998ZM285.089 71.7998H274.889V28.8998H288.089L296.909 56.2598H297.029L305.849 28.8998H319.049V71.7998H308.849V45.0998H308.729L300.749 71.7998H293.189L285.209 45.0998H285.089V71.7998ZM345.716 72.7598C332.096 72.7598 324.476 63.2798 324.476 50.3198C324.476 37.4198 332.096 27.9398 345.716 27.9398C359.216 27.9398 366.956 37.4198 366.956 50.3198C366.956 63.2798 359.216 72.7598 345.716 72.7598ZM345.716 63.9398C353.516 63.9398 355.916 57.8198 355.916 50.3198C355.916 42.8798 353.516 36.7598 345.716 36.7598C337.856 36.7598 335.516 42.8798 335.516 50.3198C335.516 57.8198 337.856 63.9398 345.716 63.9398ZM392.95 71.7998H381.55L367.27 28.8998H379.09L387.19 58.9598H387.31L395.47 28.8998H406.87L392.95 71.7998ZM443.707 71.7998H410.827V28.8998H443.347V37.7198H421.627V45.3398H440.347V54.1598H421.627V62.9798H443.707V71.7998ZM490.628 71.7998H460.748V28.8998H471.548V62.9798H490.628V71.7998ZM505.943 71.7998H495.143V28.8998H505.943V71.7998ZM552.071 71.7998H539.471L528.371 55.0598L523.931 60.2198V71.7998H513.131V28.8998H523.931V47.1998L539.291 28.8998H550.871L534.731 47.6798L552.071 71.7998ZM587.437 71.7998H554.557V28.8998H587.077V37.7198H565.357V45.3398H584.077V54.1598H565.357V62.9798H587.437V71.7998ZM614.679 71.7998H604.479V28.8998H617.679L626.499 56.2598H626.619L635.439 28.8998H648.639V71.7998H638.439V45.0998H638.319L630.339 71.7998H622.779L614.799 45.0998H614.679V71.7998ZM688.746 71.7998H655.866V28.8998H688.386V37.7198H666.666V45.3398H685.386V54.1598H666.666V62.9798H688.746V71.7998ZM702.042 71.7998H690.462L706.782 28.8998H717.642L734.082 71.7998H722.262L719.502 62.8598H704.802L702.042 71.7998ZM712.122 38.7998L707.262 54.6398H717.102L712.242 38.7998H712.122ZM752.735 71.7998H741.935V37.7198H729.455V28.8998H765.155V37.7198H752.735V71.7998ZM783.245 71.7998H775.445L792.065 28.8998H799.865L783.245 71.7998ZM800.12 71.7998H792.32L808.94 28.8998H816.74L800.12 71.7998ZM841.378 71.7998H831.178V28.8998H844.378L853.198 56.2598H853.318L862.138 28.8998H875.338V71.7998H865.138V45.0998H865.018L857.038 71.7998H849.478L841.498 45.0998H841.378V71.7998ZM902.005 72.7598C888.385 72.7598 880.765 63.2798 880.765 50.3198C880.765 37.4198 888.385 27.9398 902.005 27.9398C915.505 27.9398 923.245 37.4198 923.245 50.3198C923.245 63.2798 915.505 72.7598 902.005 72.7598ZM902.005 63.9398C909.805 63.9398 912.205 57.8198 912.205 50.3198C912.205 42.8798 909.805 36.7598 902.005 36.7598C894.145 36.7598 891.805 42.8798 891.805 50.3198C891.805 57.8198 894.145 63.9398 902.005 63.9398ZM949.239 71.7998H937.839L923.559 28.8998H935.379L943.479 58.9598H943.599L951.759 28.8998H963.159L949.239 71.7998ZM999.996 71.7998H967.116V28.8998H999.636V37.7198H977.916V45.3398H996.636V54.1598H977.916V62.9798H999.996V71.7998ZM1046.92 71.7998H1017.04V28.8998H1027.84V62.9798H1046.92V71.7998ZM1062.23 71.7998H1051.43V28.8998H1062.23V71.7998ZM1108.36 71.7998H1095.76L1084.66 55.0598L1080.22 60.2198V71.7998H1069.42V28.8998H1080.22V47.1998L1095.58 28.8998H1107.16L1091.02 47.6798L1108.36 71.7998ZM1143.73 71.7998H1110.85V28.8998H1143.37V37.7198H1121.65V45.3398H1140.37V54.1598H1121.65V62.9798H1143.73V71.7998ZM1170.97 71.7998H1160.77V28.8998H1173.97L1182.79 56.2598H1182.91L1191.73 28.8998H1204.93V71.7998H1194.73V45.0998H1194.61L1186.63 71.7998H1179.07L1171.09 45.0998H1170.97V71.7998ZM1245.03 71.7998H1212.15V28.8998H1244.67V37.7198H1222.95V45.3398H1241.67V54.1598H1222.95V62.9798H1245.03V71.7998ZM1258.33 71.7998H1246.75L1263.07 28.8998H1273.93L1290.37 71.7998H1278.55L1275.79 62.8598H1261.09L1258.33 71.7998ZM1268.41 38.7998L1263.55 54.6398H1273.39L1268.53 38.7998H1268.41ZM1309.02 71.7998H1298.22V37.7198H1285.74V28.8998H1321.44V37.7198H1309.02V71.7998ZM1339.53 71.7998H1331.73L1348.35 28.8998H1356.15L1339.53 71.7998ZM1356.41 71.7998H1348.61L1365.23 28.8998H1373.03L1356.41 71.7998ZM1397.67 71.7998H1387.47V28.8998H1400.67L1409.49 56.2598H1409.61L1418.43 28.8998H1431.63V71.7998H1421.43V45.0998H1421.31L1413.33 71.7998H1405.77L1397.79 45.0998H1397.67V71.7998ZM1458.29 72.7598C1444.67 72.7598 1437.05 63.2798 1437.05 50.3198C1437.05 37.4198 1444.67 27.9398 1458.29 27.9398C1471.79 27.9398 1479.53 37.4198 1479.53 50.3198C1479.53 63.2798 1471.79 72.7598 1458.29 72.7598ZM1458.29 63.9398C1466.09 63.9398 1468.49 57.8198 1468.49 50.3198C1468.49 42.8798 1466.09 36.7598 1458.29 36.7598C1450.43 36.7598 1448.09 42.8798 1448.09 50.3198C1448.09 57.8198 1450.43 63.9398 1458.29 63.9398ZM1505.53 71.7998H1494.13L1479.85 28.8998H1491.67L1499.77 58.9598H1499.89L1508.05 28.8998H1519.45L1505.53 71.7998ZM1556.28 71.7998H1523.4V28.8998H1555.92V37.7198H1534.2V45.3398H1552.92V54.1598H1534.2V62.9798H1556.28V71.7998ZM1603.21 71.7998H1573.33V28.8998H1584.13V62.9798H1603.21V71.7998ZM1618.52 71.7998H1607.72V28.8998H1618.52V71.7998ZM1664.65 71.7998H1652.05L1640.95 55.0598L1636.51 60.2198V71.7998H1625.71V28.8998H1636.51V47.1998L1651.87 28.8998H1663.45L1647.31 47.6798L1664.65 71.7998ZM1700.02 71.7998H1667.14V28.8998H1699.66V37.7198H1677.94V45.3398H1696.66V54.1598H1677.94V62.9798H1700.02V71.7998ZM1727.26 71.7998H1717.06V28.8998H1730.26L1739.08 56.2598H1739.2L1748.02 28.8998H1761.22V71.7998H1751.02V45.0998H1750.9L1742.92 71.7998H1735.36L1727.38 45.0998H1727.26V71.7998ZM1801.32 71.7998H1768.44V28.8998H1800.96V37.7198H1779.24V45.3398H1797.96V54.1598H1779.24V62.9798H1801.32V71.7998ZM1814.62 71.7998H1803.04L1819.36 28.8998H1830.22L1846.66 71.7998H1834.84L1832.08 62.8598H1817.38L1814.62 71.7998ZM1824.7 38.7998L1819.84 54.6398H1829.68L1824.82 38.7998H1824.7ZM1865.31 71.7998H1854.51V37.7198H1842.03V28.8998H1877.73V37.7198H1865.31V71.7998ZM1895.82 71.7998H1888.02L1904.64 28.8998H1912.44L1895.82 71.7998ZM1912.7 71.7998H1904.9L1921.52 28.8998H1929.32L1912.7 71.7998Z" fill="#FCEDC7"/>
<path d="M-155.2 123.8H-165.4V80.8998H-152.2L-143.38 108.26H-143.26L-134.44 80.8998H-121.24V123.8H-131.44V97.0998H-131.56L-139.54 123.8H-147.1L-155.08 97.0998H-155.2V123.8ZM-94.5733 124.76C-108.193 124.76 -115.813 115.28 -115.813 102.32C-115.813 89.4198 -108.193 79.9398 -94.5733 79.9398C-81.0733 79.9398 -73.3333 89.4198 -73.3333 102.32C-73.3333 115.28 -81.0733 124.76 -94.5733 124.76ZM-94.5733 115.94C-86.7733 115.94 -84.3733 109.82 -84.3733 102.32C-84.3733 94.8798 -86.7733 88.7598 -94.5733 88.7598C-102.433 88.7598 -104.773 94.8798 -104.773 102.32C-104.773 109.82 -102.433 115.94 -94.5733 115.94ZM-47.3392 123.8H-58.7392L-73.0192 80.8998H-61.1992L-53.0992 110.96H-52.9792L-44.8192 80.8998H-33.4192L-47.3392 123.8ZM3.4175 123.8H-29.4625V80.8998H3.0575V89.7198H-18.6625V97.3398H0.0575027V106.16H-18.6625V114.98H3.4175V123.8ZM50.3394 123.8H20.4594V80.8998H31.2594V114.98H50.3394V123.8ZM65.6539 123.8H54.8539V80.8998H65.6539V123.8ZM111.782 123.8H99.1822L88.0822 107.06L83.6422 112.22V123.8H72.8422V80.8998H83.6422V99.1998L99.0022 80.8998H110.582L94.4422 99.6798L111.782 123.8ZM147.148 123.8H114.268V80.8998H146.788V89.7198H125.068V97.3398H143.788V106.16H125.068V114.98H147.148V123.8ZM174.39 123.8H164.19V80.8998H177.39L186.21 108.26H186.33L195.15 80.8998H208.35V123.8H198.15V97.0998H198.03L190.05 123.8H182.49L174.51 97.0998H174.39V123.8ZM248.457 123.8H215.577V80.8998H248.097V89.7198H226.377V97.3398H245.097V106.16H226.377V114.98H248.457V123.8ZM261.753 123.8H250.173L266.493 80.8998H277.353L293.793 123.8H281.973L279.213 114.86H264.513L261.753 123.8ZM271.833 90.7998L266.973 106.64H276.813L271.953 90.7998H271.833ZM312.446 123.8H301.646V89.7198H289.166V80.8998H324.866V89.7198H312.446V123.8ZM342.956 123.8H335.156L351.776 80.8998H359.576L342.956 123.8ZM359.831 123.8H352.031L368.651 80.8998H376.451L359.831 123.8ZM401.089 123.8H390.889V80.8998H404.089L412.909 108.26H413.029L421.849 80.8998H435.049V123.8H424.849V97.0998H424.729L416.749 123.8H409.189L401.209 97.0998H401.089V123.8ZM461.716 124.76C448.096 124.76 440.476 115.28 440.476 102.32C440.476 89.4198 448.096 79.9398 461.716 79.9398C475.216 79.9398 482.956 89.4198 482.956 102.32C482.956 115.28 475.216 124.76 461.716 124.76ZM461.716 115.94C469.516 115.94 471.916 109.82 471.916 102.32C471.916 94.8798 469.516 88.7598 461.716 88.7598C453.856 88.7598 451.516 94.8798 451.516 102.32C451.516 109.82 453.856 115.94 461.716 115.94ZM508.95 123.8H497.55L483.27 80.8998H495.09L503.19 110.96H503.31L511.47 80.8998H522.87L508.95 123.8ZM559.707 123.8H526.827V80.8998H559.347V89.7198H537.627V97.3398H556.347V106.16H537.627V114.98H559.707V123.8ZM606.628 123.8H576.748V80.8998H587.548V114.98H606.628V123.8ZM621.943 123.8H611.143V80.8998H621.943V123.8ZM668.071 123.8H655.471L644.371 107.06L639.931 112.22V123.8H629.131V80.8998H639.931V99.1998L655.291 80.8998H666.871L650.731 99.6798L668.071 123.8ZM703.437 123.8H670.557V80.8998H703.077V89.7198H681.357V97.3398H700.077V106.16H681.357V114.98H703.437V123.8ZM730.679 123.8H720.479V80.8998H733.679L742.499 108.26H742.619L751.439 80.8998H764.639V123.8H754.439V97.0998H754.319L746.339 123.8H738.779L730.799 97.0998H730.679V123.8ZM804.746 123.8H771.866V80.8998H804.386V89.7198H782.666V97.3398H801.386V106.16H782.666V114.98H804.746V123.8ZM818.042 123.8H806.462L822.782 80.8998H833.642L850.082 123.8H838.262L835.502 114.86H820.802L818.042 123.8ZM828.122 90.7998L823.262 106.64H833.102L828.242 90.7998H828.122ZM868.735 123.8H857.935V89.7198H845.455V80.8998H881.155V89.7198H868.735V123.8ZM899.245 123.8H891.445L908.065 80.8998H915.865L899.245 123.8ZM916.12 123.8H908.32L924.94 80.8998H932.74L916.12 123.8ZM957.378 123.8H947.178V80.8998H960.378L969.198 108.26H969.318L978.138 80.8998H991.338V123.8H981.138V97.0998H981.018L973.038 123.8H965.478L957.498 97.0998H957.378V123.8ZM1018 124.76C1004.38 124.76 996.765 115.28 996.765 102.32C996.765 89.4198 1004.38 79.9398 1018 79.9398C1031.5 79.9398 1039.24 89.4198 1039.24 102.32C1039.24 115.28 1031.5 124.76 1018 124.76ZM1018 115.94C1025.8 115.94 1028.2 109.82 1028.2 102.32C1028.2 94.8798 1025.8 88.7598 1018 88.7598C1010.14 88.7598 1007.8 94.8798 1007.8 102.32C1007.8 109.82 1010.14 115.94 1018 115.94ZM1065.24 123.8H1053.84L1039.56 80.8998H1051.38L1059.48 110.96H1059.6L1067.76 80.8998H1079.16L1065.24 123.8ZM1116 123.8H1083.12V80.8998H1115.64V89.7198H1093.92V97.3398H1112.64V106.16H1093.92V114.98H1116V123.8ZM1162.92 123.8H1133.04V80.8998H1143.84V114.98H1162.92V123.8ZM1178.23 123.8H1167.43V80.8998H1178.23V123.8ZM1224.36 123.8H1211.76L1200.66 107.06L1196.22 112.22V123.8H1185.42V80.8998H1196.22V99.1998L1211.58 80.8998H1223.16L1207.02 99.6798L1224.36 123.8ZM1259.73 123.8H1226.85V80.8998H1259.37V89.7198H1237.65V97.3398H1256.37V106.16H1237.65V114.98H1259.73V123.8ZM1286.97 123.8H1276.77V80.8998H1289.97L1298.79 108.26H1298.91L1307.73 80.8998H1320.93V123.8H1310.73V97.0998H1310.61L1302.63 123.8H1295.07L1287.09 97.0998H1286.97V123.8ZM1361.03 123.8H1328.15V80.8998H1360.67V89.7198H1338.95V97.3398H1357.67V106.16H1338.95V114.98H1361.03V123.8ZM1374.33 123.8H1362.75L1379.07 80.8998H1389.93L1406.37 123.8H1394.55L1391.79 114.86H1377.09L1374.33 123.8ZM1384.41 90.7998L1379.55 106.64H1389.39L1384.53 90.7998H1384.41ZM1425.02 123.8H1414.22V89.7198H1401.74V80.8998H1437.44V89.7198H1425.02V123.8ZM1455.53 123.8H1447.73L1464.35 80.8998H1472.15L1455.53 123.8ZM1472.41 123.8H1464.61L1481.23 80.8998H1489.03L1472.41 123.8Z" fill="#FCEDC7"/>
</svg>
