<svg width="413" height="175" viewBox="0 0 413 175" fill="none" xmlns="http://www.w3.org/2000/svg">
<path d="M124.129 95.8691C121.409 95.8691 118.871 95.0598 116.749 93.6633C114.628 95.0598 112.092 95.8691 109.37 95.8691H82.8649C80.1385 95.8691 77.6048 95.0576 75.4854 93.6633C73.3639 95.0598 70.8279 95.8691 68.1059 95.8691H41.601C34.1767 95.8691 28.1593 89.848 28.1593 82.4191V15.019C28.1593 7.59009 34.1767 1.56898 41.601 1.56898H68.4061C70.5613 1.56898 72.6582 2.08681 74.5355 3.04848C77.7593 1.55329 81.2698 0.663353 85.038 0.387628C86.0685 0.313654 87.0968 0.275545 88.0938 0.275545C96.6898 0.275545 103.973 3.07987 109.372 8.26259C114.415 3.64925 120.632 0.934596 127.42 0.396597C128.6 0.302447 129.772 0.255371 130.903 0.255371C136.63 0.255371 141.8 1.46139 146.272 3.84203C150.645 6.17112 154.27 9.56276 157.043 13.925C160.791 19.8206 162.919 27.3257 163.739 37.5499C163.769 37.9086 163.782 38.2695 163.782 38.6304L163.769 82.4236C163.769 89.8502 157.749 95.8691 150.327 95.8691H124.124H124.129Z" fill="#161512"/>
<path d="M191.741 97.3712C180.387 97.3712 169.239 94.0087 160.352 87.9001C155.459 84.5376 151.348 80.4354 148.134 75.7077C144.661 70.6012 142.318 64.8827 141.171 58.7182C138.375 43.699 141.91 29.3165 151.124 18.2202C155.849 12.5287 162.019 7.86152 168.962 4.72095C175.788 1.63194 183.416 0 191.019 0C199.566 0 207.848 1.95249 215.638 5.80367C222.59 9.24014 228.629 14.4386 233.105 20.8407C237.277 26.8081 240.111 33.8357 241.303 41.1659C242.501 48.5477 242.029 56.1761 239.934 63.2306C237.694 70.7716 233.589 77.6535 228.067 83.1366C223.284 87.8844 217.522 91.5316 210.942 93.9818C204.902 96.2302 198.444 97.3712 191.748 97.3712H191.741Z" fill="#161512"/>
<path d="M334.376 97.2478C322.943 97.2478 312.822 94.5018 304.293 89.0859C297.037 84.4771 291.205 77.9023 287.426 70.0721C283.94 62.8473 282.255 54.6988 282.553 46.5055C282.849 38.4019 285.08 30.5068 289.005 23.6697C293.277 16.2274 299.505 10.1614 307.015 6.12644C314.128 2.30441 322.475 0.284668 331.159 0.284668C349.8 0.284668 365.547 9.49118 372.257 24.3108C376.119 32.8404 377.006 42.3136 374.965 53.2709C374.607 55.192 373.854 56.9494 372.801 58.4693V78.2072C372.801 83.428 369.781 88.1758 365.056 90.3883C359.814 92.843 355.421 94.3897 350.806 95.4052C345.259 96.6269 339.732 97.2456 334.376 97.2456V97.2478Z" fill="#161512"/>
<path d="M304.215 174.561C296.125 174.561 288.391 172.283 282.441 168.15C274.865 162.886 270.303 154.841 269.6 145.491C268.787 134.733 272.199 127.161 275.895 122.236V97.2256C275.895 92.1976 278.698 87.5887 283.16 85.2798C290.282 81.5923 297.805 79.7317 302.859 78.8193C307.627 77.9608 312.356 77.5259 316.926 77.5259C329.879 77.5259 341.264 81.0049 349.849 87.5842C356.958 93.0315 365.639 103.332 366.622 121.458C366.636 121.702 366.642 121.947 366.642 122.191L366.631 159.667C366.629 167.094 360.612 173.113 353.19 173.113H327.585C325.146 173.113 322.78 172.449 320.723 171.227C318.949 172.019 317.253 172.595 315.725 173.016C312.009 174.038 308.135 174.559 304.212 174.559L304.215 174.561Z" fill="#161512"/>
<path d="M243.583 95.8874C237.617 95.8874 232.364 91.9532 230.686 86.2235L210.924 18.8055C209.733 14.7391 210.526 10.3499 213.064 6.9583C215.602 3.56666 219.59 1.56934 223.824 1.56934H251.534C255.793 1.56934 259.666 3.5689 262.151 6.77C264.673 3.51734 268.581 1.56934 272.768 1.56934H300.025C304.255 1.56934 308.236 3.55994 310.776 6.94485C313.315 10.3298 314.114 14.7122 312.932 18.7764L293.342 86.163C291.673 91.9017 286.42 95.8515 280.447 95.856C280.447 95.856 243.59 95.8874 243.586 95.8874H243.583Z" fill="#161512"/>
<path d="M186.633 173.115C183.913 173.115 181.375 172.305 179.253 170.909C177.132 172.305 174.596 173.115 171.874 173.115H145.369C142.643 173.115 140.109 172.303 137.99 170.909C135.868 172.305 133.332 173.115 130.61 173.115H104.105C96.6808 173.115 90.6634 167.093 90.6634 159.665V92.2645C90.6634 84.8356 96.6808 78.8145 104.105 78.8145H130.91C133.061 78.8145 135.156 79.3301 137.031 80.2895C141.865 78.003 146.599 77.418 150.172 77.418C152.854 77.418 155.663 77.7385 158.522 78.3707C162.18 79.1799 167.331 81.0674 171.914 85.4611C176.944 80.8769 183.147 78.1801 189.926 77.6421C191.105 77.548 192.274 77.5009 193.405 77.5009C199.12 77.5009 204.286 78.7047 208.76 81.0764C213.14 83.3987 216.772 86.7836 219.554 91.1347C223.371 97.1043 225.5 104.65 226.255 114.883C226.279 115.212 226.291 115.544 226.291 115.876L226.277 159.669C226.277 167.096 220.257 173.115 212.835 173.115H186.633Z" fill="#161512"/>
<path d="M255.394 174.504C247.168 174.504 239.419 173.034 232.362 170.135C224.895 167.067 218.609 162.572 213.678 156.777C209.222 151.539 206.081 145.459 204.347 138.707C202.591 131.872 202.328 124.515 203.57 116.838C205.445 105.235 211.764 94.8267 221.362 87.5346C230.157 80.8522 241.101 77.1714 252.177 77.1714C263.253 77.1714 273.722 80.8567 282.022 87.8305C288.461 93.2419 292.8 100.162 294.922 108.398C296.687 115.253 296.817 122.724 295.305 130.606C294.94 132.507 294.187 134.249 293.139 135.753V155.455C293.139 160.649 290.15 165.376 285.463 167.605C277.591 171.346 269.383 173.588 261.067 174.271C259.174 174.426 257.263 174.507 255.392 174.507L255.394 174.504Z" fill="#161512"/>
<path d="M382.869 174.489C377.898 174.489 373.077 173.659 368.925 172.09C361.651 169.34 355.849 164.35 352.148 157.663C349.282 152.484 347.645 146.257 347.282 139.151C346.991 133.482 347.121 127.849 347.246 122.401C347.264 121.644 347.28 120.895 347.298 120.151C342.992 117.909 340.05 113.403 340.05 108.212V93.1678C340.05 86.064 345.573 80.1841 352.659 79.7447L353.069 79.7201C353.349 79.7021 353.662 79.6842 353.985 79.6618C354.316 76.6467 355.661 73.8155 357.818 71.6456C360.341 69.1103 363.768 67.6846 367.346 67.6846H387.526C394.203 67.6846 399.743 72.5557 400.791 78.94C407.355 79.8277 412.414 85.4565 412.414 92.2689V110.323C412.414 114.255 410.693 117.992 407.705 120.547C406.773 121.343 405.749 122 404.662 122.509C409.311 124.679 412.414 129.386 412.414 134.697V155.309C412.414 162.314 407.382 166.087 405.489 167.506C405.153 167.757 403.415 169.05 402.088 169.804C396.763 172.83 389.939 174.495 382.871 174.495L382.869 174.489Z" fill="#161512"/>
<path d="M17.3857 147.625C13.4092 147.625 9.72619 146.407 6.73765 144.103C3.1039 141.301 0.771757 137.21 0.173599 132.583C-0.0840341 130.595 -0.0549071 128.519 0.260974 126.412C0.498444 124.831 0.903934 123.135 1.50433 121.227C1.99272 119.667 2.62672 117.923 3.43995 115.896C4.1546 114.114 5.05071 111.978 6.09917 109.548C7.13194 107.158 8.33721 104.388 9.67915 101.314C11.0144 98.2566 12.5602 94.6564 14.2717 90.617C16.008 86.5192 19.6574 83.5468 24.0192 82.6748L31.5377 81.1751C32.4136 81.0002 33.294 80.915 34.1678 80.915C38.1913 80.915 42.0625 82.7263 44.6411 85.9364C47.782 89.8436 48.4877 95.1743 46.4759 99.7652C45.0533 103.013 43.7271 106.019 42.5106 108.759C43.6576 109.98 44.5761 111.417 45.2079 113.011C46.6484 116.647 46.4356 120.731 44.6232 124.197C44.5537 124.332 44.332 124.76 43.8055 125.829C43.1939 127.066 42.4725 128.378 41.5988 129.846C40.7408 131.285 39.7595 132.789 38.6864 134.309C37.4789 136.015 36.1571 137.647 34.7592 139.156C33.079 140.965 31.2487 142.55 29.3175 143.865C26.4544 145.818 23.3404 147.024 20.0607 147.45C19.1601 147.566 18.2595 147.627 17.3857 147.627V147.625Z" fill="#161512"/>
<path d="M32.0036 145.733C27.7247 145.733 23.8109 144.307 20.6879 141.611C18.3491 139.591 15.3986 135.924 14.6212 129.918C14.1104 125.975 14.8072 121.754 16.7495 117.017C17.8024 114.448 19.1533 111.256 20.7663 107.531C21.3914 106.085 22.2561 104.782 23.3046 103.666C23.2665 99.8552 24.4964 96.1632 26.8577 93.0966C29.6424 89.4785 33.6682 87.1651 38.1935 86.5778C38.9373 86.4814 39.6901 86.4321 40.4338 86.4321C44.2065 86.4321 47.7954 87.6606 50.8109 89.9829C54.4334 92.7783 56.7454 96.8043 57.3324 101.33C57.581 103.254 57.5071 105.172 57.124 107.017C58.038 108.031 58.8042 109.187 59.3845 110.458C61.1117 114.251 60.9863 118.629 59.0417 122.317C58.3226 123.682 57.413 125.345 56.3444 127.262C55.0338 129.611 53.5037 131.951 51.8011 134.213C49.7736 136.908 47.782 139.048 45.712 140.757C42.5487 143.368 38.6931 145.031 34.562 145.567C33.704 145.679 32.846 145.735 32.0081 145.735L32.0036 145.733Z" fill="#161512"/>
<path d="M38.8365 144.269C34.7682 144.269 30.8656 142.418 28.2915 139.158C25.2335 135.285 24.539 130.048 26.4858 125.511C29.201 119.185 31.9611 112.713 34.6942 106.277C37.4117 99.8752 40.1493 93.417 42.9049 86.905C44.6366 82.8117 48.2794 79.8393 52.6345 78.9628L59.9983 77.4833C60.881 77.3062 61.7681 77.2188 62.6463 77.2188C66.6564 77.2188 70.5142 79.0166 73.095 82.2087C76.2426 86.1002 76.9685 91.4175 74.9836 96.0106C74.6565 96.7683 74.3272 97.526 73.9979 98.2859C74.2802 98.5011 74.5535 98.7253 74.8201 98.9562C75.9514 98.9943 77.0917 99.1736 78.2186 99.5099L78.7092 99.6556C82.5356 100.797 85.6563 103.578 87.229 107.25C88.8017 110.922 88.6606 115.103 86.8459 118.66C86.0529 120.214 85.0963 121.944 83.9224 123.953C82.6118 126.192 81.1063 128.421 79.4507 130.57C78.2208 132.166 77.0827 133.498 75.9716 134.641C74.5983 136.053 73.1533 137.275 71.6814 138.266C70.0594 139.36 68.3591 140.23 66.6318 140.853C65.0367 141.427 63.361 141.83 61.6494 142.052C60.6883 142.178 59.7272 142.24 58.793 142.24C56.6267 142.24 54.5567 141.909 52.6076 141.254C51.2701 142.021 49.7915 142.566 48.2256 142.837L41.1463 144.07C40.3756 144.204 39.6049 144.269 38.8388 144.269H38.8365Z" fill="#161512"/>
<path d="M76.8251 139.867C72.4834 139.867 68.6032 138.726 65.2966 136.473C60.7421 133.37 57.8118 128.416 57.0478 122.523C56.4788 118.125 57.1643 113.816 59.0887 109.714C60.5741 106.551 62.597 103.679 65.1062 101.173C67.4047 98.8777 70.0124 96.9208 72.8576 95.3538C76.0724 93.5829 79.388 92.4666 82.7059 92.0362C83.8552 91.886 84.9887 91.812 86.0797 91.812C88.5329 91.812 90.8695 92.1908 93.0246 92.9418C95.1708 93.6905 97.0684 94.8114 98.6567 96.2348C99.9673 96.441 101.269 96.8468 102.521 97.4677L103.025 97.7165C106.265 99.3193 108.725 102.16 109.847 105.596C110.969 109.032 110.662 112.778 108.993 115.986C108.151 117.605 107.188 119.25 106.133 120.88C105.077 122.505 103.863 124.188 102.521 125.881C102.499 125.91 102.476 125.937 102.454 125.966C99.591 129.519 96.5621 132.424 93.4548 134.601C89.5836 137.311 85.1321 139.01 80.2214 139.647C79.0676 139.797 77.9251 139.873 76.8274 139.873L76.8251 139.867Z" fill="#161512"/>
<path d="M63.4148 10.0203L58.8983 48.2361C59.7608 48.3482 59.8841 48.2429 60.0207 47.4135C62.1803 34.2639 63.3431 10.092 81.0234 8.80527C90.6096 8.10811 97.0863 12.096 99.8643 21.2981C102.528 30.119 101.334 39.1933 101.065 48.2339H101.966C102.893 34.7615 106.207 10.1749 123.49 8.80303C140.127 7.48493 144.218 19.5272 145.349 33.625L145.335 77.4181H119.133C118.752 68.0525 119.637 58.2945 119.146 48.9714C118.931 44.9005 118.367 37.3439 113.429 36.3307C107.15 35.0417 105.62 42.9862 105.015 47.5166C103.709 57.288 104.694 67.5638 104.376 77.4204H77.8713V45.3758C77.8713 44.1496 76.9931 40.7692 76.4196 39.6057C74.885 36.4853 71.6321 35.3488 68.4733 36.8888C65.1599 38.5051 64.21 43.2933 63.7665 46.6289C62.4245 56.7052 63.4394 67.2611 63.1145 77.4204H36.6097V10.0203H63.4148Z" fill="#FCEDC7"/>
<path d="M204.687 12.867C176.966 -0.838577 143.366 18.8948 149.39 51.2599C154.684 79.6954 194.53 87.5188 213.604 68.5902C229.949 52.3718 225.464 23.1383 204.687 12.867ZM199.822 45.6423C198.518 56.1288 176.386 57.095 173.032 47.1958C170.55 39.8656 175.962 34.6559 182.919 33.8736C191.14 32.95 201.094 35.3867 199.819 45.6401L199.822 45.6423Z" fill="#FCEDC7"/>
<path d="M355.018 24.8645C347.423 8.0901 323.407 4.90245 308.379 12.9792C285.914 25.0505 285.078 59.1261 306.5 72.733C317.197 79.5252 330.829 79.9377 342.92 77.2746C346.982 76.3801 350.618 74.9634 354.363 73.2104V48.2338C352.072 48.0029 350.241 50.0025 348.241 50.9978C338.746 55.7165 317.457 58.3056 315.208 44.024L356.754 45.8106C358.089 38.6417 358.064 31.5984 355.015 24.8645H355.018ZM316.113 37.7002C318.947 30.1212 332.01 28.7112 335.086 36.7991L316.113 37.7002Z" fill="#FCEDC7"/>
<path d="M246.538 10.02C249.601 23.4319 253.936 36.4941 255.535 50.2287C256.064 54.7614 256.174 59.3501 256.629 63.8827C257.213 63.8737 257.354 64.1226 257.384 63.4411C258.188 45.0483 262.214 28.5429 267.227 10.9817L267.772 10.02H295.029L275.44 77.4067L238.59 77.4381L218.828 10.02H246.538Z" fill="#FCEDC7"/>
<path d="M125.919 87.2675L121.402 125.481H122.603C123.181 118.209 124.277 110.514 126.369 103.515C129.942 91.5782 136.97 83.4835 150.622 86.5053C166.674 90.0583 164.174 113.23 163.567 125.481H164.467C165.503 112.002 168.632 87.4266 185.992 86.0502C202.588 84.7344 206.811 96.7542 207.851 110.872L207.837 154.665H181.635C181.254 145.3 182.139 135.542 181.648 126.219C181.433 122.137 180.902 114.598 175.931 113.578C169.681 112.293 168.121 120.236 167.517 124.764C166.21 134.537 167.194 144.811 166.878 154.668H140.373V122.623C140.373 120.944 139.296 117.082 138.265 115.703C136.168 112.903 132.053 112.695 129.521 115.091C126.353 118.09 125.778 127.129 125.603 131.336C125.283 139.07 125.867 146.925 125.616 154.668H99.1115V87.2675H125.917H125.919Z" fill="#FCEDC7"/>
<path d="M300.254 87.0613C294.89 88.0275 289.137 89.7491 284.343 92.2328V117.658C286.375 117.788 287.986 116.006 289.758 115.096C297.276 111.224 306.045 108.962 314.524 110.527C317.266 111.031 321.935 112.551 321.989 115.853C304.463 113.322 276.195 115.486 278.008 139.485C279.103 154.009 295.034 158.396 307.167 155.055C320.607 151.359 324.279 137.609 324.702 125.181L325.905 125.185L322.592 154.67H348.194L348.207 117.194C346.76 90.509 323.571 82.8604 300.251 87.0613H300.254ZM308.892 137.234C300.471 137.216 300.491 128.525 307.676 126.071C308.339 125.844 310.767 125.179 311.301 125.179H319.885C319.836 131.354 315.441 137.245 308.892 137.234Z" fill="#FCEDC7"/>
<path d="M268.386 93.132C249.094 76.9225 215.987 88.3572 211.845 113.986C207.356 141.76 228.833 158.017 254.975 155.869C261.822 155.307 268.542 153.386 274.705 150.458V125.481C272.411 125.248 270.588 127.255 268.585 128.245C259.153 132.901 237.676 135.589 235.55 121.272L277.111 123.074C279.246 111.944 277.356 100.673 268.386 93.1342V93.132ZM236.457 114.948C239.044 107.501 252.679 105.849 255.128 114.047L236.457 114.948Z" fill="#FCEDC7"/>
<path d="M382.533 76.1333V87.2654H393.978V105.32L382.533 103.515V127.736C382.533 127.896 383.044 129.187 383.174 129.503C384.735 133.28 388.88 133.509 391.731 130.906C392.592 130.122 392.296 129.332 393.978 129.691V150.303C393.978 150.725 391.037 152.771 390.455 153.103C384.477 156.499 375.075 156.927 368.683 154.511C359.456 151.023 356.187 142.72 355.714 133.466C355.206 123.542 356.12 113.181 355.728 103.213H348.498V88.1688C352.072 87.9469 355.988 87.7899 358.882 85.4541C361.732 83.1542 362.37 79.6415 362.352 76.1333H382.533Z" fill="#FCEDC7"/>
<path d="M29.1719 89.3657C26.4724 95.5258 24.1581 100.744 22.2293 105.017C20.3004 109.292 18.7254 112.865 17.5067 115.734C16.2858 118.606 15.4098 120.872 14.8721 122.533C14.3345 124.197 14.1284 125.49 14.2471 126.42C14.2964 126.799 14.4442 127.077 14.6952 127.254C14.9461 127.431 15.2082 127.503 15.4837 127.467C16.2746 127.364 17.2155 126.797 18.3065 125.761C19.3953 124.728 20.502 123.473 21.6221 121.998C22.7423 120.523 23.8064 118.958 24.8168 117.304C25.8272 115.649 26.6471 114.152 27.2766 112.811L27.7157 112.964C27.5186 113.34 27.1982 113.975 26.7569 114.874C26.3133 115.77 25.7465 116.799 25.0587 117.956C24.3687 119.113 23.5869 120.307 22.7154 121.54C21.8439 122.773 20.9075 123.928 19.9105 125.001C18.9136 126.075 17.8607 126.992 16.7517 127.747C15.6428 128.503 14.5025 128.958 13.3353 129.11C11.8903 129.299 10.7612 129.077 9.9435 128.449C9.12804 127.819 8.64862 126.956 8.50524 125.853C8.40667 125.096 8.42458 124.28 8.55452 123.405C8.68446 122.531 8.94209 121.484 9.32742 120.26C9.71051 119.039 10.2392 117.588 10.9136 115.907C11.5879 114.228 12.4302 112.219 13.4383 109.884C14.4465 107.548 15.6316 104.822 16.9959 101.706C18.358 98.5902 19.9083 94.9766 21.6513 90.8654L29.1697 89.3657H29.1719Z" fill="#FCEDC7"/>
<path d="M35.4604 106.714C34.5867 108.613 33.7242 110.458 32.8729 112.247C32.0193 114.038 31.2733 115.701 30.6348 117.237C29.9941 118.772 29.4968 120.124 29.1405 121.29C28.7843 122.455 28.6499 123.365 28.7328 124.02C28.7955 124.502 28.9322 124.896 29.1473 125.199C29.3623 125.504 29.6917 125.627 30.1397 125.569C30.8275 125.479 31.5444 125.134 32.2881 124.529C33.0319 123.926 33.7824 123.179 34.5419 122.294C35.3013 121.408 36.0474 120.418 36.7799 119.326C37.5125 118.234 38.1958 117.165 38.8298 116.12C39.4638 115.076 40.0261 114.094 40.519 113.17C41.0118 112.249 41.4128 111.505 41.7242 110.94L42.1566 111.041C41.4823 112.318 40.6355 113.872 39.6139 115.701C38.5923 117.533 37.4095 119.339 36.0675 121.121C34.6942 122.944 33.3926 124.365 32.1605 125.383C30.9283 126.401 29.4855 127.015 27.8345 127.23C26.4231 127.414 25.3052 127.147 24.4785 126.432C23.6518 125.717 23.1433 124.636 22.9574 123.191C22.7557 121.642 23.1679 119.62 24.1917 117.125C25.2156 114.63 26.5194 111.547 28.1078 107.875L35.4582 106.712L35.4604 106.714ZM31.7841 99.0007C31.6541 98.0032 31.8961 97.1043 32.5099 96.3085C33.1238 95.5127 33.928 95.0487 34.9272 94.9187C35.9264 94.7887 36.8225 95.033 37.6178 95.645C38.4131 96.2592 38.8768 97.0662 39.0068 98.0637C39.1367 99.0613 38.8925 99.9602 38.2809 100.756C37.6693 101.552 36.8606 102.016 35.8637 102.146C34.8667 102.276 33.9684 102.034 33.1731 101.419C32.3755 100.805 31.914 100.001 31.7841 99.0007Z" fill="#FCEDC7"/>
<path d="M33.8452 125.822C36.6119 119.373 39.354 112.946 42.0737 106.539C44.7934 100.133 47.5311 93.6698 50.2889 87.1533L57.6527 85.6738C55.3922 90.9014 53.134 96.0774 50.8781 101.2C48.6221 106.322 46.3101 111.363 43.9466 116.326L44.0631 116.416C44.845 115.161 45.6918 113.8 46.6036 112.334C47.5154 110.868 48.5011 109.498 49.5585 108.223C50.6182 106.949 51.7697 105.853 53.0153 104.939C54.2609 104.024 55.623 103.473 57.1016 103.28C57.6863 103.204 58.2621 103.19 58.8266 103.24C59.3912 103.289 59.8997 103.43 60.35 103.668C60.8003 103.905 61.1834 104.23 61.4993 104.641C61.8152 105.051 62.0146 105.582 62.0997 106.232C62.2453 107.362 61.9518 108.33 61.217 109.14C60.4822 109.949 59.5816 110.621 58.5152 111.162C57.4489 111.7 56.3399 112.132 55.1929 112.455C54.0458 112.778 53.1318 113.018 52.453 113.175L52.4687 113.293C53.0108 113.435 53.5552 113.574 54.0974 113.715C54.6395 113.856 55.1369 114.047 55.5872 114.286C56.0375 114.526 56.4273 114.845 56.7611 115.241C57.0926 115.638 57.2987 116.147 57.3794 116.768C57.4242 117.113 57.4108 117.485 57.3391 117.88C57.2674 118.274 57.1778 118.664 57.0702 119.048C56.9627 119.431 56.8709 119.803 56.7947 120.164C56.7185 120.525 56.6983 120.843 56.7342 121.119C56.8193 121.776 57.1531 122.067 57.7401 121.991C58.327 121.915 58.9655 121.596 59.6623 121.034C60.359 120.471 61.0893 119.765 61.8532 118.913C62.6172 118.061 63.3767 117.115 64.1339 116.071C64.8911 115.028 65.6013 113.973 66.2689 112.906C66.9342 111.841 67.5369 110.825 68.0768 109.861C68.6167 108.9 69.0535 108.081 69.3851 107.409L69.8757 107.555C69.2059 108.866 68.3568 110.404 67.3263 112.164C66.2958 113.926 65.1218 115.661 63.8046 117.371C62.9062 118.537 62.0862 119.501 61.3469 120.263C60.6054 121.025 59.8818 121.644 59.1739 122.119C58.4659 122.596 57.7692 122.957 57.0859 123.204C56.4004 123.45 55.679 123.623 54.924 123.722C53.4791 123.91 52.2603 123.751 51.2701 123.249C50.2777 122.746 49.6997 121.857 49.5339 120.579C49.4398 119.855 49.4868 119.207 49.675 118.64C49.8632 118.073 50.0805 117.526 50.3292 117.003C50.5756 116.481 50.7974 115.952 50.9901 115.418C51.1827 114.885 51.2388 114.307 51.1581 113.686C50.7347 113.923 50.2911 114.145 49.8274 114.349C49.3636 114.555 48.8909 114.69 48.4115 114.75C48.1696 114.782 47.9567 114.755 47.7708 114.672C47.5848 114.589 47.4728 114.403 47.437 114.118C47.3631 113.549 47.7394 113.21 48.5639 113.105C49.1127 113.033 49.6011 113.015 50.0245 113.047C50.4479 113.08 50.8153 113.076 51.1245 113.036C51.6398 112.968 52.1439 112.737 52.6345 112.345C53.1251 111.953 53.5709 111.478 53.9719 110.922C54.3729 110.366 54.6776 109.763 54.8904 109.11C55.1033 108.458 55.1727 107.842 55.0966 107.261C55.0428 106.851 54.877 106.517 54.5992 106.257C54.3214 105.997 53.9585 105.896 53.5104 105.954C52.8921 106.035 52.1842 106.441 51.3866 107.176C50.5891 107.911 49.7669 108.839 48.9156 109.964C48.0643 111.09 47.2197 112.336 46.3841 113.706C45.5462 115.075 44.771 116.434 44.0542 117.788C43.3373 119.142 42.7077 120.422 42.1656 121.628C41.6212 122.836 41.209 123.825 40.9245 124.598L33.8452 125.831V125.822Z" fill="#FCEDC7"/>
<path d="M92.077 104.773C91.4318 106.012 90.697 107.27 89.8658 108.55C89.0347 109.83 88.0781 111.152 86.996 112.518C84.917 115.098 82.8358 117.118 80.7523 118.577C78.6666 120.036 76.2494 120.946 73.4983 121.303C71.1258 121.61 69.2484 121.294 67.8662 120.354C66.4862 119.413 65.6595 117.893 65.3862 115.795C65.1487 113.97 65.4422 112.184 66.2644 110.431C67.0866 108.68 68.2022 107.1 69.6114 105.692C71.0205 104.284 72.5977 103.1 74.3451 102.139C76.0903 101.177 77.7907 100.59 79.4417 100.375C81.0928 100.159 82.4863 100.251 83.6221 100.646C84.758 101.043 85.4032 101.841 85.56 103.044C85.7168 104.25 85.2665 105.376 84.2136 106.42C83.1606 107.467 81.8747 108.413 80.358 109.256C78.8414 110.101 77.3 110.825 75.7341 111.43C74.1681 112.036 72.936 112.502 72.0331 112.829C72.0085 113.183 72.0018 113.533 72.013 113.883C72.0219 114.232 72.051 114.578 72.0959 114.923C72.1765 115.542 72.3244 116.145 72.5394 116.73C72.7545 117.315 73.0547 117.81 73.44 118.214C73.8254 118.619 74.3003 118.924 74.8715 119.131C75.4406 119.337 76.1194 119.388 76.9102 119.285C78.5277 119.074 80.1878 118.256 81.8904 116.828C83.593 115.4 85.2755 113.668 86.9355 111.632C87.9885 110.307 88.898 109.034 89.6664 107.812C90.4349 106.593 91.0711 105.497 91.5752 104.519L92.0792 104.768L92.077 104.773ZM80.2236 102.374C80.0981 101.41 79.5538 100.991 78.5927 101.117C77.8355 101.215 77.0693 101.708 76.2919 102.596C75.5145 103.484 74.8267 104.519 74.2286 105.698C73.6282 106.878 73.1286 108.072 72.7254 109.281C72.3221 110.489 72.1003 111.48 72.0622 112.253C73.4669 111.755 74.7035 111.114 75.7744 110.328C76.843 109.541 77.7324 108.7 78.4381 107.803C79.1438 106.907 79.6456 105.985 79.9413 105.037C80.237 104.089 80.3334 103.201 80.2258 102.376L80.2236 102.374Z" fill="#FCEDC7"/>
</svg>
