<svg width="12" height="13" viewBox="0 0 12 13" fill="none" xmlns="http://www.w3.org/2000/svg">
<g clip-path="url(#clip0_181_46406)">
<path d="M1.05263 6.30486C1.05263 4.89297 1.05715 3.48334 1.05037 2.07144C1.04812 1.48636 1.23787 1.0097 1.75971 0.711509C2.2951 0.404281 2.8079 0.499161 3.31392 0.815425C5.57295 2.22732 7.83876 3.63017 10.1 5.03981C11.1799 5.713 11.1866 6.93287 10.1136 7.60155C7.85005 9.00666 5.5865 10.4118 3.3207 11.8124C2.81016 12.1286 2.29058 12.1987 1.75971 11.9005C1.23787 11.6068 1.04586 11.1279 1.04812 10.5405C1.05715 9.12865 1.05263 7.71676 1.05263 6.30486Z" fill="black"/>
</g>
<defs>
<clipPath id="clip0_181_46406">
<rect width="11.5662" height="11.5662" fill="white" transform="translate(0.19873 0.523987)"/>
</clipPath>
</defs>
</svg>
