<svg width="1440" height="73" viewBox="0 0 1440 73" fill="none" xmlns="http://www.w3.org/2000/svg">
<rect x="35.025" width="36.025" height="36.025" transform="rotate(90 35.025 0)" fill="#FCEDC7"/>
<rect x="71.0502" y="36.0251" width="36.025" height="36.025" transform="rotate(90 71.0502 36.0251)" fill="#FCEDC7"/>
<rect x="71.0502" width="36.025" height="36.025" transform="rotate(90 71.0502 0)" fill="#AB1823"/>
<rect x="35.025" y="36.0251" width="36.025" height="36.025" transform="rotate(90 35.025 36.0251)" fill="#AB1823"/>
<rect x="107.076" y="36.0251" width="36.025" height="36.025" transform="rotate(90 107.076 36.0251)" fill="#AB1823"/>
<rect x="107.076" width="36.025" height="36.025" transform="rotate(90 107.076 0)" fill="#FCEDC7"/>
<rect x="143.101" y="36.0251" width="36.025" height="36.025" transform="rotate(90 143.101 36.0251)" fill="#FCEDC7"/>
<rect x="143.101" width="36.025" height="36.025" transform="rotate(90 143.101 0)" fill="#AB1823"/>
<rect x="179.126" y="36.0251" width="36.025" height="36.025" transform="rotate(90 179.126 36.0251)" fill="#AB1823"/>
<rect x="179.126" width="36.025" height="36.025" transform="rotate(90 179.126 0)" fill="#FCEDC7"/>
<rect x="215.15" y="36.0251" width="36.025" height="36.025" transform="rotate(90 215.15 36.0251)" fill="#FCEDC7"/>
<rect x="215.15" width="36.025" height="36.025" transform="rotate(90 215.15 0)" fill="#AB1823"/>
<rect x="251.175" y="36.0251" width="36.025" height="36.025" transform="rotate(90 251.175 36.0251)" fill="#AB1823"/>
<rect x="251.175" width="36.025" height="36.025" transform="rotate(90 251.175 0)" fill="#FCEDC7"/>
<rect x="287.201" y="36.0251" width="36.025" height="36.025" transform="rotate(90 287.201 36.0251)" fill="#FCEDC7"/>
<rect x="287.201" width="36.025" height="36.025" transform="rotate(90 287.201 0)" fill="#AB1823"/>
<rect x="323.226" y="36.0251" width="36.025" height="36.025" transform="rotate(90 323.226 36.0251)" fill="#AB1823"/>
<rect x="323.226" width="36.025" height="36.025" transform="rotate(90 323.226 0)" fill="#FCEDC7"/>
<rect x="359.251" y="36.0251" width="36.025" height="36.025" transform="rotate(90 359.251 36.0251)" fill="#FCEDC7"/>
<rect x="359.251" width="36.025" height="36.025" transform="rotate(90 359.251 0)" fill="#AB1823"/>
<rect x="395.275" y="36.0251" width="36.025" height="36.025" transform="rotate(90 395.275 36.0251)" fill="#AB1823"/>
<rect x="395.275" width="36.025" height="36.025" transform="rotate(90 395.275 0)" fill="#FCEDC7"/>
<rect x="431.3" y="36.0251" width="36.025" height="36.025" transform="rotate(90 431.3 36.0251)" fill="#FCEDC7"/>
<rect x="431.3" width="36.025" height="36.025" transform="rotate(90 431.3 0)" fill="#AB1823"/>
<rect x="467.326" y="36.0251" width="36.025" height="36.025" transform="rotate(90 467.326 36.0251)" fill="#AB1823"/>
<rect x="467.326" width="36.025" height="36.025" transform="rotate(90 467.326 0)" fill="#FCEDC7"/>
<rect x="503.351" y="36.0251" width="36.025" height="36.025" transform="rotate(90 503.351 36.0251)" fill="#FCEDC7"/>
<rect x="503.351" width="36.025" height="36.025" transform="rotate(90 503.351 0)" fill="#AB1823"/>
<rect x="539.376" y="36.0251" width="36.025" height="36.025" transform="rotate(90 539.376 36.0251)" fill="#AB1823"/>
<rect x="539.376" width="36.025" height="36.025" transform="rotate(90 539.376 0)" fill="#FCEDC7"/>
<rect x="575.4" y="36.0251" width="36.025" height="36.025" transform="rotate(90 575.4 36.0251)" fill="#FCEDC7"/>
<rect x="575.4" width="36.025" height="36.025" transform="rotate(90 575.4 0)" fill="#AB1823"/>
<rect x="611.425" y="36.0251" width="36.025" height="36.025" transform="rotate(90 611.425 36.0251)" fill="#AB1823"/>
<rect x="611.425" width="36.025" height="36.025" transform="rotate(90 611.425 0)" fill="#FCEDC7"/>
<rect x="647.451" y="36.0251" width="36.025" height="36.025" transform="rotate(90 647.451 36.0251)" fill="#FCEDC7"/>
<rect x="647.451" width="36.025" height="36.025" transform="rotate(90 647.451 0)" fill="#AB1823"/>
<rect x="683.476" y="36.0251" width="36.025" height="36.025" transform="rotate(90 683.476 36.0251)" fill="#AB1823"/>
<rect x="683.476" width="36.025" height="36.025" transform="rotate(90 683.476 0)" fill="#FCEDC7"/>
<rect x="719.501" y="36.0251" width="36.025" height="36.025" transform="rotate(90 719.501 36.0251)" fill="#FCEDC7"/>
<rect x="719.501" width="36.025" height="36.025" transform="rotate(90 719.501 0)" fill="#AB1823"/>
<rect x="755.525" width="36.025" height="36.025" transform="rotate(90 755.525 0)" fill="#FCEDC7"/>
<rect x="791.55" y="36.0251" width="36.025" height="36.025" transform="rotate(90 791.55 36.0251)" fill="#FCEDC7"/>
<rect x="791.55" width="36.025" height="36.025" transform="rotate(90 791.55 0)" fill="#AB1823"/>
<rect x="755.525" y="36.0251" width="36.025" height="36.025" transform="rotate(90 755.525 36.0251)" fill="#AB1823"/>
<rect x="827.576" y="36.0251" width="36.025" height="36.025" transform="rotate(90 827.576 36.0251)" fill="#AB1823"/>
<rect x="827.576" width="36.025" height="36.025" transform="rotate(90 827.576 0)" fill="#FCEDC7"/>
<rect x="863.601" y="36.0251" width="36.025" height="36.025" transform="rotate(90 863.601 36.0251)" fill="#FCEDC7"/>
<rect x="863.601" width="36.025" height="36.025" transform="rotate(90 863.601 0)" fill="#AB1823"/>
<rect x="899.626" y="36.0251" width="36.025" height="36.025" transform="rotate(90 899.626 36.0251)" fill="#AB1823"/>
<rect x="899.626" width="36.025" height="36.025" transform="rotate(90 899.626 0)" fill="#FCEDC7"/>
<rect x="935.65" y="36.0251" width="36.025" height="36.025" transform="rotate(90 935.65 36.0251)" fill="#FCEDC7"/>
<rect x="935.65" width="36.025" height="36.025" transform="rotate(90 935.65 0)" fill="#AB1823"/>
<rect x="971.675" y="36.0251" width="36.025" height="36.025" transform="rotate(90 971.675 36.0251)" fill="#AB1823"/>
<rect x="971.675" width="36.025" height="36.025" transform="rotate(90 971.675 0)" fill="#FCEDC7"/>
<rect x="1007.7" y="36.0251" width="36.025" height="36.025" transform="rotate(90 1007.7 36.0251)" fill="#FCEDC7"/>
<rect x="1007.7" width="36.025" height="36.025" transform="rotate(90 1007.7 0)" fill="#AB1823"/>
<rect x="1043.73" y="36.0251" width="36.025" height="36.025" transform="rotate(90 1043.73 36.0251)" fill="#AB1823"/>
<rect x="1043.73" width="36.025" height="36.025" transform="rotate(90 1043.73 0)" fill="#FCEDC7"/>
<rect x="1079.75" y="36.0251" width="36.025" height="36.025" transform="rotate(90 1079.75 36.0251)" fill="#FCEDC7"/>
<rect x="1079.75" width="36.025" height="36.025" transform="rotate(90 1079.75 0)" fill="#AB1823"/>
<rect x="1115.78" y="36.0251" width="36.025" height="36.025" transform="rotate(90 1115.78 36.0251)" fill="#AB1823"/>
<rect x="1115.78" width="36.025" height="36.025" transform="rotate(90 1115.78 0)" fill="#FCEDC7"/>
<rect x="1151.8" y="36.0251" width="36.025" height="36.025" transform="rotate(90 1151.8 36.0251)" fill="#FCEDC7"/>
<rect x="1151.8" width="36.025" height="36.025" transform="rotate(90 1151.8 0)" fill="#AB1823"/>
<rect x="1187.83" y="36.0251" width="36.025" height="36.025" transform="rotate(90 1187.83 36.0251)" fill="#AB1823"/>
<rect x="1187.83" width="36.025" height="36.025" transform="rotate(90 1187.83 0)" fill="#FCEDC7"/>
<rect x="1223.85" y="36.0251" width="36.025" height="36.025" transform="rotate(90 1223.85 36.0251)" fill="#FCEDC7"/>
<rect x="1223.85" width="36.025" height="36.025" transform="rotate(90 1223.85 0)" fill="#AB1823"/>
<rect x="1259.88" y="36.0251" width="36.025" height="36.025" transform="rotate(90 1259.88 36.0251)" fill="#AB1823"/>
<rect x="1259.88" width="36.025" height="36.025" transform="rotate(90 1259.88 0)" fill="#FCEDC7"/>
<rect x="1295.9" y="36.0251" width="36.025" height="36.025" transform="rotate(90 1295.9 36.0251)" fill="#FCEDC7"/>
<rect x="1295.9" width="36.025" height="36.025" transform="rotate(90 1295.9 0)" fill="#AB1823"/>
<rect x="1331.93" y="36.0251" width="36.025" height="36.025" transform="rotate(90 1331.93 36.0251)" fill="#AB1823"/>
<rect x="1331.93" width="36.025" height="36.025" transform="rotate(90 1331.93 0)" fill="#FCEDC7"/>
<rect x="1367.95" y="36.0251" width="36.025" height="36.025" transform="rotate(90 1367.95 36.0251)" fill="#FCEDC7"/>
<rect x="1367.95" width="36.025" height="36.025" transform="rotate(90 1367.95 0)" fill="#AB1823"/>
<rect x="1403.98" y="36.0251" width="36.025" height="36.025" transform="rotate(90 1403.98 36.0251)" fill="#AB1823"/>
<rect x="1403.98" width="36.025" height="36.025" transform="rotate(90 1403.98 0)" fill="#FCEDC7"/>
<rect x="1440" y="36.0251" width="36.025" height="36.025" transform="rotate(90 1440 36.0251)" fill="#FCEDC7"/>
<rect x="1440" width="36.025" height="36.025" transform="rotate(90 1440 0)" fill="#AB1823"/>
</svg>
